<?xml version="1.0" standalone="no"?>
<!DOCTYPE svg PUBLIC "-//W3C//DTD SVG 20010904//EN"
 "http://www.w3.org/TR/2001/REC-SVG-20010904/DTD/svg10.dtd">
<svg version="1.0" xmlns="http://www.w3.org/2000/svg"
 width="1500.000000pt" height="1500.000000pt" viewBox="0 0 1500.000000 1500.000000"
 preserveAspectRatio="xMidYMid meet">
<metadata>
Created by potrace 1.14, written by Peter Selinger 2001-2017
</metadata>
<g transform="translate(0.000000,1500.000000) scale(0.100000,-0.100000)"
fill="#000000" stroke="none">
<path d="M8620 14962 c0 -6 19 -13 43 -17 63 -11 71 -12 200 -41 65 -14 131
-28 146 -30 128 -23 553 -144 573 -164 9 -10 52 -30 95 -45 43 -15 94 -33 113
-40 19 -7 105 -39 190 -71 85 -31 237 -92 338 -135 100 -43 195 -77 210 -77
35 0 129 -42 200 -92 31 -21 100 -64 152 -96 52 -32 107 -70 121 -86 15 -15
71 -53 125 -84 539 -311 1053 -697 1507 -1133 55 -53 107 -96 117 -96 23 0
144 -126 130 -135 -8 -5 -2 -17 17 -36 15 -16 64 -69 108 -119 44 -49 83 -92
86 -95 3 -3 42 -49 87 -102 53 -63 79 -103 76 -113 -4 -9 9 -34 31 -63 95
-119 301 -401 390 -532 54 -80 114 -160 133 -179 32 -32 105 -149 195 -314 21
-37 47 -84 59 -105 61 -108 203 -403 273 -567 66 -155 120 -250 144 -253 l21
-3 -21 53 c-132 337 -356 793 -529 1078 -5 8 -39 65 -76 125 -103 169 -254
390 -407 594 -77 102 -143 188 -146 191 -4 3 -36 42 -73 86 -40 49 -63 85 -57
91 11 11 -46 83 -67 83 -8 0 -30 24 -48 53 -38 59 -128 159 -281 312 -236 234
-569 529 -612 540 -44 11 -202 134 -196 152 8 22 -281 228 -602 428 -357 223
-833 464 -1200 608 -264 104 -386 147 -655 230 -231 71 -484 137 -630 163 -14
3 -56 11 -95 19 -107 21 -185 28 -185 17z"/>
<path d="M7317 14634 c-1 -1 -110 -5 -242 -8 -132 -4 -256 -9 -275 -11 -19 -2
-69 -6 -110 -9 -41 -3 -93 -8 -115 -10 -80 -10 -151 -18 -185 -22 -19 -2 -55
-7 -80 -10 -25 -4 -54 -8 -65 -9 -17 -2 -53 -8 -195 -30 -14 -2 -36 -6 -50 -9
-14 -3 -76 -15 -137 -27 -94 -19 -113 -25 -113 -40 0 -12 -12 -21 -37 -28 -49
-14 -53 -14 -53 4 0 16 -12 18 -59 9 -21 -4 -31 -12 -31 -25 0 -22 -4 -24 -52
-33 -31 -6 -38 -4 -38 9 0 8 -4 15 -8 15 -14 0 -384 -108 -447 -130 -33 -12
-67 -23 -75 -25 -46 -11 -461 -170 -585 -225 -22 -10 -101 -41 -175 -70 -74
-28 -143 -56 -153 -61 -10 -5 -41 -14 -69 -19 -45 -9 -218 -89 -315 -146 -188
-111 -273 -163 -423 -263 -202 -134 -189 -123 -243 -180 -23 -24 -118 -105
-212 -180 -93 -74 -183 -147 -199 -161 -46 -39 -125 -108 -211 -185 -43 -38
-90 -80 -104 -93 -68 -61 -109 -92 -121 -92 -26 0 -366 -361 -439 -466 l-34
-49 53 50 c30 28 65 61 79 75 26 25 171 185 207 228 10 12 27 22 36 22 16 0
113 86 223 197 34 34 193 133 214 133 7 0 41 24 74 53 105 89 119 102 131 112
20 19 229 180 331 256 152 112 445 304 488 320 34 12 40 12 51 -3 10 -14 25
-8 131 54 198 116 394 214 500 251 136 47 258 97 270 109 6 6 0 5 -13 -1 -24
-13 -42 -7 -42 12 0 13 69 44 124 57 38 8 73 -4 43 -16 -13 -5 -15 -10 -7 -19
12 -15 9 -16 165 45 44 17 145 53 225 81 128 44 157 50 246 54 75 3 140 14
255 43 105 28 169 39 203 37 l48 -4 -4 35 c-2 19 -2 34 2 34 3 0 22 4 43 9 36
9 38 8 44 -20 3 -16 11 -29 17 -29 6 0 70 12 141 26 72 14 143 27 159 29 15 3
35 6 45 9 9 3 40 8 70 11 30 4 63 8 74 11 10 2 45 6 76 10 31 3 70 8 86 10 17
2 53 6 80 9 28 4 65 8 82 10 18 3 79 7 135 11 57 3 109 7 116 9 6 3 12 -1 12
-8 0 -10 81 -12 368 -12 328 0 560 -7 632 -19 14 -2 63 -8 110 -11 47 -4 99
-9 115 -10 48 -4 364 -52 460 -70 215 -39 564 -125 788 -193 l97 -29 6 23 c8
31 16 30 91 -5 55 -26 91 -60 78 -73 -3 -3 52 -26 122 -52 74 -26 137 -56 150
-70 12 -12 70 -44 129 -69 59 -26 151 -74 205 -107 63 -39 116 -64 148 -70 28
-5 65 -17 82 -26 26 -13 33 -14 40 -2 5 7 9 16 9 21 0 14 80 -33 80 -48 0 -8
4 -15 9 -15 5 0 68 -33 140 -74 72 -41 131 -71 131 -66 0 4 -9 14 -21 21 -14
10 -18 20 -13 32 6 16 10 15 53 -10 25 -15 58 -33 74 -41 29 -15 32 -23 17
-53 -9 -16 -4 -23 42 -51 270 -164 712 -492 714 -530 1 -10 3 -20 5 -21 2 -2
24 -20 49 -39 59 -47 94 -56 121 -32 24 21 19 26 94 -78 28 -39 32 -49 21 -63
-11 -15 15 -44 204 -234 119 -119 238 -241 265 -271 26 -30 62 -71 79 -90 17
-19 54 -62 81 -95 28 -33 52 -62 55 -65 3 -3 21 -24 39 -48 38 -48 55 -50 21
-2 -16 23 -19 35 -12 42 14 14 28 3 83 -69 43 -55 43 -55 23 -72 -21 -16 -19
-19 88 -165 72 -100 105 -153 99 -160 -12 -15 175 -302 195 -300 16 2 104
-138 104 -166 0 -10 54 -126 121 -257 85 -168 119 -227 115 -199 -3 21 -14 56
-26 77 -25 49 -25 51 0 47 13 -2 35 -36 74 -116 l55 -112 -28 -13 -29 -12 20
-45 c11 -25 31 -68 44 -97 35 -78 152 -374 159 -405 12 -47 22 -31 14 21 -9
61 -21 102 -47 168 -18 44 -19 52 -6 57 17 7 24 -9 109 -231 41 -110 63 -153
74 -153 19 0 38 -45 85 -205 32 -108 83 -297 91 -335 2 -8 12 -53 23 -100 24
-101 69 -321 77 -370 14 -92 -48 106 -69 220 -10 55 -40 181 -67 283 -16 59
-29 109 -29 112 0 2 -9 13 -20 23 -12 11 -36 72 -59 153 -32 108 -45 138 -67
156 -16 12 -31 20 -35 17 -4 -2 12 -66 35 -141 68 -221 101 -356 88 -361 -7
-2 -9 -16 -5 -35 12 -67 64 -250 79 -279 14 -28 45 -166 59 -268 3 -25 8 -52
10 -60 2 -8 7 -39 10 -69 4 -30 8 -61 10 -70 1 -9 6 -45 10 -81 4 -36 9 -78
11 -95 5 -41 12 -116 19 -200 21 -272 27 -582 13 -610 -14 -24 -14 -29 -22
-185 -12 -220 -24 -389 -31 -440 -2 -14 -6 -54 -9 -90 -3 -36 -8 -74 -10 -86
-2 -11 -7 -46 -10 -78 -5 -46 -32 -206 -72 -431 -3 -16 -19 -88 -36 -160 -16
-71 -31 -139 -34 -151 -33 -164 -228 -760 -305 -931 -10 -23 -19 -44 -19 -47
0 -21 -220 -486 -302 -636 -78 -145 -111 -201 -206 -355 -216 -353 -458 -678
-732 -985 -32 -36 -74 -83 -94 -105 -20 -22 -53 -64 -73 -94 -58 -82 -143
-170 -199 -206 -28 -18 -62 -43 -75 -56 -13 -14 -87 -77 -164 -143 -77 -65
-151 -128 -165 -140 -14 -11 -45 -37 -70 -56 -25 -19 -47 -37 -50 -40 -3 -3
-35 -27 -72 -55 -37 -27 -66 -55 -64 -61 7 -17 -2 -25 -145 -126 -91 -64 -140
-93 -147 -86 -10 10 -330 -185 -410 -251 -24 -20 -58 -45 -75 -57 -60 -39
-268 -144 -296 -149 -16 -3 -60 -18 -97 -33 -192 -80 -225 -96 -220 -108 3 -7
-1 -15 -7 -17 -379 -155 -759 -286 -842 -292 -76 -5 -335 -68 -335 -81 0 -25
-470 -116 -770 -149 -25 -2 -65 -7 -90 -10 -237 -26 -456 -38 -715 -39 -93 0
-154 -2 -135 -4 19 -2 44 -11 55 -20 61 -52 78 -58 155 -56 93 2 90 1 90 17 0
9 18 13 63 14 70 0 277 12 322 18 17 2 62 7 100 10 39 3 84 7 100 9 17 2 59 7
95 11 36 4 73 9 84 11 10 2 44 6 75 10 31 3 59 8 62 10 3 1 28 6 55 9 27 4
103 17 169 30 66 13 135 26 152 30 18 3 70 14 115 26 46 11 94 22 108 25 224
45 860 259 1125 379 28 12 73 32 100 45 213 95 509 251 730 383 108 65 444
287 486 321 14 11 36 28 49 36 64 43 343 266 460 368 189 166 477 452 639 637
404 460 741 958 1013 1498 38 75 75 137 81 137 7 0 18 -4 26 -9 11 -7 5 -28
-35 -107 -572 -1155 -1472 -2158 -2539 -2832 -71 -45 -135 -86 -142 -92 -7 -5
-14 -10 -16 -10 -3 0 -76 -41 -163 -91 -130 -75 -455 -240 -614 -312 -199 -90
-537 -215 -795 -295 -203 -63 -555 -153 -651 -167 -21 -4 -47 -8 -56 -11 -20
-6 -8 -4 -238 -43 -96 -16 -206 -33 -245 -36 -38 -4 -77 -9 -85 -10 -14 -3
-54 -7 -190 -20 -43 -4 -169 -13 -290 -21 -70 -4 -587 -4 -660 0 -226 13 -310
19 -340 22 -19 2 -102 6 -185 9 -82 2 -161 6 -174 9 -12 3 -42 8 -65 10 -50 7
-77 12 -181 33 -44 9 -89 17 -100 19 -48 7 -216 42 -245 51 -33 10 13 20 51
12 74 -17 122 -20 129 -8 5 8 39 5 121 -11 63 -13 124 -24 136 -26 19 -2 93
-15 113 -19 6 -1 114 -16 160 -21 19 -2 52 -6 73 -9 90 -12 116 -15 187 -21
113 -9 164 -12 291 -20 208 -12 199 -13 199 36 l0 40 -77 1 c-43 0 -103 2
-133 4 -178 11 -229 15 -265 19 -22 3 -67 8 -100 11 -33 3 -71 7 -85 9 -14 3
-47 7 -75 10 -244 27 -638 106 -975 195 -85 22 -184 45 -220 50 -36 5 -133 33
-215 61 -472 166 -910 374 -1357 646 -136 82 -308 194 -318 205 -12 14 -204
129 -215 129 -7 0 -39 21 -72 48 -33 26 -78 61 -99 77 -335 261 -786 698
-1019 990 -22 27 -48 59 -58 70 -35 38 -234 300 -297 390 -213 303 -393 605
-554 928 -38 76 -63 116 -72 113 -16 -6 -152 293 -241 534 -116 314 -252 775
-298 1013 -2 9 -16 80 -30 157 -14 77 -28 150 -30 162 -3 12 -7 40 -10 63 -3
22 -8 51 -10 65 -11 61 -27 190 -40 320 -3 30 -8 71 -10 90 -9 84 -23 341 -26
483 l-1 87 -28 0 -28 0 3 -112 c4 -118 14 -313 20 -384 7 -85 22 -234 30 -294
3 -19 7 -55 10 -80 3 -25 7 -56 10 -70 2 -14 7 -45 10 -70 3 -25 8 -56 10 -70
3 -14 7 -38 10 -55 3 -16 7 -41 10 -55 7 -35 26 -140 31 -171 11 -65 99 -421
138 -559 12 -41 12 -56 4 -62 -9 -5 -6 -26 10 -80 44 -140 84 -243 101 -258
10 -9 37 -67 61 -130 58 -156 178 -437 251 -588 33 -68 59 -125 57 -127 -2 -1
-13 -7 -24 -13 -20 -11 -24 -4 -72 96 -28 59 -62 133 -77 165 -17 38 -31 57
-40 54 -14 -6 -85 152 -85 189 0 12 -18 72 -41 135 -22 63 -45 130 -51 151 -6
21 -18 38 -28 41 -14 4 -32 46 -73 173 -36 114 -58 169 -68 169 -10 0 -28 53
-62 175 -26 96 -49 186 -52 200 -3 14 -7 34 -9 45 -21 90 -64 298 -72 340 -2
17 -9 55 -14 85 -19 108 -52 344 -65 465 -23 224 -27 278 -39 600 -8 182 -15
257 -26 269 -18 18 -28 -108 -23 -304 2 -113 3 -218 1 -235 -3 -36 -2 -278 2
-355 2 -30 2 -73 0 -95 -2 -38 8 -167 16 -209 2 -12 7 -41 10 -66 7 -53 68
-366 89 -454 8 -33 21 -92 30 -130 9 -38 18 -77 20 -85 16 -74 93 -331 151
-509 24 -74 44 -147 44 -163 0 -56 104 -333 215 -574 232 -501 500 -950 829
-1387 79 -106 115 -147 126 -143 10 3 25 -7 40 -27 13 -18 34 -44 46 -58 12
-14 66 -77 120 -140 459 -533 1035 -1025 1654 -1412 299 -186 838 -468 1020
-533 41 -14 89 -27 105 -27 17 0 95 -25 175 -55 285 -108 643 -218 907 -279
111 -25 343 -74 378 -79 57 -8 110 -17 115 -20 3 -2 30 -6 60 -10 30 -3 80
-10 110 -15 30 -5 80 -11 110 -15 30 -3 66 -7 80 -9 14 -3 59 -7 100 -11 41
-3 94 -8 118 -11 34 -5 42 -3 42 10 0 13 9 15 48 12 75 -8 356 -18 482 -19
109 0 450 11 534 18 90 7 193 16 226 20 19 2 60 7 90 10 202 22 432 66 473 92
6 4 21 9 32 11 121 18 680 151 707 168 4 3 16 7 25 9 10 2 44 12 76 21 44 13
61 14 66 6 5 -9 46 1 142 33 74 25 143 49 154 54 11 5 28 12 38 15 10 3 17 12
15 18 -3 8 58 37 166 81 1507 604 2772 1709 3588 3137 143 251 321 616 314
644 -4 17 9 60 43 139 116 271 232 606 315 909 93 343 130 543 102 554 -7 3
-13 21 -13 42 1 20 -2 60 -6 89 -6 45 -5 51 11 48 9 -2 25 -4 36 -4 15 -1 17
-7 14 -35 -2 -19 0 -32 4 -30 4 3 8 18 8 33 0 20 6 30 20 34 11 3 20 9 18 14
-1 7 8 82 17 133 1 8 6 40 10 70 3 30 8 66 10 80 2 14 6 54 10 90 3 36 8 81
10 100 6 48 13 144 21 275 14 222 7 891 -11 985 -1 8 -6 55 -10 103 -3 48 -8
98 -11 110 -2 12 -6 46 -9 76 -6 63 -22 174 -35 251 -5 30 -11 69 -13 85 -3
17 -10 58 -16 92 -6 35 -13 73 -15 85 -24 142 -119 528 -124 503 -7 -35 -26
-36 -38 -3 -6 17 -19 36 -30 42 -27 16 -33 26 -28 54 5 23 29 51 46 52 6 0 21
-41 32 -92 4 -16 10 -28 15 -28 5 0 -17 84 -49 188 -76 247 -89 284 -108 305
-23 26 -101 236 -89 240 11 3 -55 174 -143 367 l-57 125 -53 0 c-42 0 -55 4
-66 21 -14 20 -12 22 30 45 l45 23 -72 141 c-79 155 -274 495 -323 563 -6 8
-44 -20 -44 -33 0 -7 16 -43 35 -80 29 -53 33 -70 24 -81 -10 -12 -14 -11 -27
7 -35 51 -122 193 -122 200 0 5 10 18 22 29 20 19 21 22 8 43 -9 12 -29 43
-45 69 -17 26 -36 48 -42 48 -17 0 -16 -13 4 -55 18 -37 14 -45 -21 -58 -5 -2
25 -57 67 -122 42 -66 77 -124 77 -130 0 -27 -25 -2 -77 80 -92 142 -285 419
-350 500 -4 6 -53 66 -108 135 -89 111 -174 211 -300 349 -22 24 -102 107
-178 184 -79 80 -134 144 -129 149 5 5 32 -13 63 -42 30 -27 61 -50 70 -50 17
0 181 -162 241 -237 68 -88 78 -101 78 -111 0 -6 35 -53 78 -104 43 -51 102
-124 132 -163 30 -38 57 -72 60 -75 4 -4 67 -89 198 -269 21 -28 26 -31 34
-17 13 23 -4 75 -41 126 l-31 42 24 19 c31 25 41 24 53 -3 10 -21 11 -19 8 13
-1 24 -16 55 -45 95 -24 32 -46 61 -49 64 -3 3 -33 41 -66 84 -33 44 -67 87
-75 95 -9 9 -36 41 -60 71 -146 181 -437 486 -646 677 -49 44 -105 95 -124
113 -32 29 -235 195 -370 302 -30 24 -65 59 -77 76 -22 34 -69 71 -248 193
-272 186 -584 368 -904 526 -163 80 -196 93 -205 81 -9 -12 -38 -3 -180 56
-103 43 -160 72 -147 74 52 8 27 19 -264 123 -206 74 -612 193 -735 215 -14 3
-41 9 -60 14 -30 8 -149 33 -215 46 -11 2 -31 6 -45 9 -14 2 -38 7 -55 10 -16
3 -39 7 -50 9 -11 2 -42 7 -70 10 -27 4 -57 9 -65 11 -17 4 -59 11 -135 20
-27 4 -60 8 -73 10 -13 2 -53 7 -90 10 -37 4 -78 8 -91 10 -13 2 -62 7 -110
10 -47 4 -111 8 -141 10 -30 3 -125 7 -210 11 -85 3 -174 7 -198 8 -24 1 -44
1 -45 0z m504 -159 c21 -14 -14 -25 -76 -25 -75 0 -105 8 -105 27 0 13 14 14
84 10 47 -3 90 -8 97 -12z m-1610 -102 c-9 -33 -42 -46 -69 -27 -27 18 -18 42
16 46 15 2 34 4 43 5 13 1 15 -4 10 -24z m-1901 -467 c0 -16 -93 -57 -145 -63
-36 -5 -38 -4 -25 10 18 18 152 76 163 70 4 -2 7 -10 7 -17z m6804 -437 c30
-18 34 -24 25 -40 -11 -21 -7 -32 24 -66 11 -13 17 -30 14 -42 -4 -15 6 -26
40 -48 25 -15 51 -39 58 -53 12 -24 13 -56 2 -67 -3 -2 -36 16 -73 41 -52 35
-68 51 -69 70 0 23 -67 105 -102 124 -15 9 -14 14 11 56 15 25 29 46 31 46 2
0 20 -9 39 -21z m582 -495 c77 -59 75 -57 64 -74 -7 -11 -21 -5 -72 35 -84 64
-81 62 -74 74 11 17 19 14 82 -35z m494 -397 c0 -28 -26 -31 -65 -7 -35 22
-36 23 -18 44 10 11 23 24 28 28 12 10 55 -41 55 -65z m1951 -3679 c6 -24 12
-50 14 -58 2 -8 10 -46 19 -84 13 -56 14 -71 4 -77 -7 -5 -16 -5 -19 -1 -3 4
-18 60 -34 126 -22 98 -25 120 -14 127 8 5 15 9 16 9 1 0 7 -19 14 -42z m174
-610 c44 -292 67 -620 69 -978 2 -219 -1 -253 -17 -247 -6 2 -11 112 -13 307
-1 168 -5 323 -7 345 -3 22 -8 85 -12 140 -8 132 -15 223 -20 260 -10 85 -16
209 -10 203 3 -3 8 -17 10 -30z m19 -1804 c-1 -37 -15 -167 -19 -174 -2 -3 -6
-27 -9 -55 -4 -27 -8 -59 -10 -70 -2 -11 -11 -22 -21 -23 -9 -2 -15 0 -12 5 3
4 8 33 12 63 4 30 9 58 10 61 2 3 7 35 10 72 4 36 8 74 10 84 2 10 4 31 4 46
1 18 6 27 14 24 6 -2 12 -17 11 -33z m-74 -599 c8 -2 20 -4 27 -4 12 -1 7 -69
-6 -83 -3 -3 -35 -1 -71 6 -61 11 -65 14 -61 37 1 13 7 32 13 42 10 19 16 19
98 2z m-13238 -1822 c14 -16 68 -116 68 -127 0 -2 -7 -6 -15 -10 -11 -4 -25
14 -50 64 -19 38 -35 74 -35 80 0 15 15 12 32 -7z m39 -200 c17 -32 43 -78 57
-103 169 -302 473 -740 715 -1027 151 -180 249 -286 445 -481 143 -143 196
-191 206 -183 9 7 24 -1 57 -32 77 -71 271 -234 385 -323 196 -152 561 -405
674 -467 14 -8 71 -42 128 -75 57 -34 105 -62 107 -62 2 0 32 -16 67 -36 401
-228 1062 -496 1512 -613 38 -10 72 -23 74 -30 5 -16 -18 -14 -100 9 -52 14
-75 17 -84 9 -10 -8 -40 -3 -116 21 -135 42 -300 99 -418 145 -52 20 -110 41
-128 47 -20 7 -31 17 -30 27 2 10 -17 23 -57 40 -118 50 -200 86 -231 102 -20
10 -36 12 -46 6 -36 -24 -676 331 -1006 557 -90 62 -452 332 -506 378 -22 18
-70 59 -107 91 -38 32 -69 52 -71 46 -3 -8 -9 -9 -20 -3 -15 9 -169 150 -307
282 -92 88 -123 114 -78 66 31 -34 35 -43 24 -52 -11 -9 -25 1 -70 49 -31 33
-57 64 -57 70 0 15 32 10 54 -8 12 -10 -9 14 -45 52 -129 136 -179 192 -294
330 -206 247 -421 543 -593 817 -41 65 -43 67 -68 56 -24 -11 -29 -9 -51 16
-26 30 -19 52 18 58 16 3 10 18 -51 128 -62 113 -68 126 -53 138 25 19 29 16
64 -45z m1315 -1795 c11 -13 51 -52 89 -87 49 -46 64 -65 54 -71 -16 -11 -33
1 -120 85 -41 40 -68 73 -65 81 8 20 19 17 42 -8z m488 -427 c3 -4 -5 -19 -17
-34 l-22 -28 -33 28 -34 28 22 28 22 27 29 -20 c15 -12 31 -24 33 -29z m8239
-216 c-27 -17 -61 -40 -77 -50 l-29 -19 12 22 c6 12 35 40 63 62 40 32 53 38
64 29 12 -10 6 -18 -33 -44z m-5534 -913 c43 -16 67 -42 39 -42 -33 1 -152 37
-156 48 -6 18 64 14 117 -6z m-217 -96 c31 -8 59 -11 62 -8 3 3 6 -4 6 -16 0
-12 -3 -22 -7 -22 -26 0 -162 44 -157 51 7 12 28 11 96 -5z"/>
<path d="M6949 14245 c-2 -2 -51 -6 -109 -9 -117 -7 -194 -14 -258 -22 -32 -4
-44 -2 -48 10 -3 8 -13 13 -22 12 -9 -2 -43 -7 -76 -11 -32 -3 -68 -8 -80 -10
-22 -4 -72 -12 -133 -21 -32 -4 -215 -36 -288 -50 -255 -47 -580 -138 -770
-214 -614 -248 -639 -257 -740 -285 -74 -21 -198 -82 -235 -115 -33 -30 -33
-30 -185 -110 -141 -74 -146 -77 -138 -96 5 -13 8 -13 22 0 24 21 407 216 541
276 63 27 129 57 145 64 184 84 359 146 502 176 50 11 166 42 257 69 169 52
308 89 438 117 105 23 257 53 298 60 19 3 85 14 145 24 61 10 151 23 200 30
50 6 106 13 125 15 50 6 133 13 225 20 44 3 105 8 135 11 31 3 160 7 288 9
198 3 232 2 232 -11 0 -10 13 -14 48 -15 26 0 74 -2 107 -4 33 -2 112 -6 175
-9 63 -4 131 -8 150 -11 19 -2 58 -6 85 -10 90 -10 223 -26 250 -30 91 -12
127 -18 174 -27 41 -8 55 -7 61 3 11 17 156 -7 187 -31 24 -18 23 -18 273 -80
317 -79 585 -164 867 -276 252 -100 333 -138 370 -172 33 -32 133 -85 133 -72
0 5 -10 15 -22 21 -22 12 -22 12 -2 21 25 12 74 -6 74 -26 0 -9 14 -25 30 -38
17 -12 30 -27 30 -32 0 -6 39 -32 88 -57 85 -45 93 -53 77 -91 -4 -11 -3 -18
3 -18 6 0 35 -14 64 -31 29 -17 77 -38 108 -46 30 -7 79 -30 110 -50 396 -260
548 -370 783 -566 214 -179 336 -294 331 -315 -3 -10 9 -31 28 -52 32 -34 108
-130 95 -120 -3 3 -64 60 -134 126 -70 67 -171 159 -223 204 -52 46 -108 95
-125 109 -108 95 -431 334 -610 452 -141 93 -245 159 -251 159 -3 0 -18 8 -32
19 -48 34 -303 171 -477 256 -194 95 -378 175 -580 251 -117 44 -142 50 -155
39 -17 -14 -26 -14 -104 9 -49 14 -57 20 -54 38 3 19 -8 25 -85 50 -161 51
-500 137 -662 167 -66 13 -140 27 -165 31 -25 5 -63 12 -85 15 -22 3 -51 7
-65 10 -14 2 -43 7 -65 10 -22 2 -56 7 -75 10 -19 2 -55 6 -80 9 -25 3 -70 8
-101 11 -59 7 -67 8 -259 21 -225 15 -779 9 -960 -10 -19 -2 -71 -7 -115 -11
-44 -4 -89 -9 -100 -10 -11 -2 -45 -6 -76 -10 -31 -3 -66 -7 -76 -9 -11 -3
-44 -7 -74 -11 -30 -4 -76 -11 -104 -16 -27 -5 -66 -12 -85 -15 -19 -3 -78
-14 -130 -25 -52 -11 -108 -22 -125 -25 -36 -6 -225 -54 -350 -89 -94 -26
-125 -48 -125 -90 0 -17 -7 -24 -31 -29 -35 -7 -55 4 -65 36 -4 15 -11 18 -27
13 -12 -3 -26 -7 -32 -9 -5 -2 -17 -6 -25 -9 -8 -3 -46 -15 -85 -27 -38 -13
-83 -28 -100 -35 -16 -7 -70 -27 -120 -46 -603 -222 -1262 -594 -1785 -1009
-114 -90 -135 -110 -143 -132 -7 -19 8 -25 18 -8 13 21 43 30 54 16 17 -20
-62 -116 -96 -116 -15 0 -47 -19 -84 -52 l-59 -51 -25 23 -24 22 -204 -203
c-200 -201 -238 -241 -347 -369 -30 -35 -62 -71 -70 -80 -8 -9 -27 -31 -41
-50 -15 -19 -41 -51 -58 -70 -17 -19 -31 -39 -31 -44 0 -5 -6 -3 -14 3 -16 13
-49 -23 -125 -136 -47 -72 -52 -86 -15 -52 15 13 -12 -30 -59 -96 -78 -110
-287 -430 -287 -440 0 -2 -20 -37 -44 -77 -90 -148 -336 -634 -336 -663 0 -4
-14 -37 -31 -73 -37 -80 -86 -199 -88 -215 0 -4 -7 -20 -15 -35 -25 -50 -29
-72 -12 -72 20 0 20 1 0 -45 -10 -24 -20 -35 -29 -31 -11 4 -27 -33 -64 -147
-75 -231 -160 -537 -174 -632 -3 -16 -9 -48 -15 -70 -21 -85 -23 -95 -11 -95
7 0 10 3 6 6 -10 10 14 64 29 64 18 0 18 -6 -5 -120 -25 -122 -28 -129 -52
-123 -10 3 -20 0 -20 -6 -1 -6 -2 -14 -3 -18 -3 -9 -16 -111 -22 -168 -2 -22
-9 -65 -14 -95 -10 -56 -14 -89 -25 -195 -18 -187 -28 -368 -29 -570 l-1 -170
28 0 c25 1 27 -2 27 -42 0 -39 -2 -43 -25 -43 -22 0 -28 -7 -27 -30 0 -3 3
-70 7 -150 3 -80 8 -163 10 -185 3 -22 7 -69 10 -105 3 -36 7 -76 10 -90 2
-14 6 -52 10 -85 3 -33 13 -105 21 -160 8 -55 17 -116 20 -135 3 -19 19 -107
37 -195 l32 -160 35 3 35 3 13 -66 c7 -36 13 -71 15 -77 1 -7 -6 -14 -15 -16
-12 -2 -19 5 -24 22 -7 27 -34 57 -34 37 0 -36 82 -325 160 -566 271 -833 721
-1625 1308 -2304 233 -269 564 -589 847 -817 230 -186 547 -407 801 -558 328
-194 721 -382 1089 -521 222 -83 600 -200 742 -230 10 -2 56 -13 103 -24 89
-21 99 -23 190 -40 30 -6 66 -13 80 -16 75 -15 163 -29 245 -41 28 -3 58 -8
69 -10 10 -2 44 -6 75 -9 31 -4 67 -8 81 -10 23 -4 75 -9 205 -20 278 -25 937
-25 1110 0 17 2 60 6 96 9 36 3 79 10 95 16 16 7 67 13 114 15 106 5 165 13
310 40 41 8 86 17 100 19 162 28 352 75 345 87 -3 4 21 15 52 24 80 24 95 26
107 16 6 -4 61 7 126 26 63 19 122 36 130 38 56 14 335 115 490 178 301 121
550 242 830 402 129 73 123 70 205 121 171 106 510 343 610 426 201 166 296
247 386 328 46 43 283 277 344 341 238 251 499 576 680 849 39 58 73 107 76
110 8 8 229 377 229 384 0 4 12 25 26 47 36 58 202 393 263 530 149 340 302
786 376 1099 3 13 21 89 30 130 27 116 43 216 35 218 -15 5 -12 21 8 50 17 24
27 69 48 217 3 22 7 51 9 65 2 14 7 48 10 75 4 28 8 61 10 75 2 14 7 57 10 95
4 39 9 84 11 100 12 102 19 333 19 620 -1 288 -4 385 -21 570 -2 22 -6 71 -10
110 -3 38 -7 72 -9 75 -2 3 -6 39 -10 80 -4 41 -8 77 -10 80 -2 3 -6 29 -10
59 -4 30 -9 63 -11 75 -2 12 -7 37 -10 56 -16 99 -56 300 -84 415 -12 50 -23
99 -26 111 -10 52 -118 413 -158 529 -70 203 -189 509 -205 527 -4 4 -7 -2 -8
-14 -3 -33 -21 -45 -27 -17 -9 46 -18 104 -20 135 -3 32 -101 240 -202 424
-31 58 -58 106 -60 108 -1 2 -15 -3 -31 -12 -30 -15 -30 -15 -47 22 -17 34
-17 37 0 49 10 7 22 13 27 13 5 0 -1 17 -14 38 -12 20 -27 46 -33 57 -26 46
-242 371 -302 455 -128 177 -374 477 -501 610 -29 30 -53 58 -53 62 0 22 48
-15 116 -88 71 -77 79 -83 94 -69 16 14 19 14 31 -4 8 -10 32 -40 54 -66 36
-43 38 -48 22 -60 -16 -11 -12 -19 39 -81 280 -341 578 -802 783 -1212 41 -82
77 -142 83 -140 17 6 85 -141 71 -150 -7 -5 11 -59 52 -157 68 -164 89 -220
141 -370 22 -63 45 -110 63 -130 16 -16 36 -49 43 -73 8 -24 18 -42 23 -40 10
4 23 -39 89 -294 30 -115 50 -210 46 -213 -5 -3 -7 -18 -6 -33 2 -15 4 -35 5
-45 0 -10 6 -15 11 -12 6 3 10 3 11 -2 0 -4 2 -17 5 -28 2 -11 6 -58 8 -105 3
-47 7 -96 11 -110 9 -41 13 -68 34 -215 19 -138 25 -188 36 -315 4 -36 8 -78
10 -95 11 -81 19 -335 18 -560 0 -291 -8 -448 -29 -627 -4 -39 -2 -48 10 -48
11 0 16 10 17 33 0 17 2 41 4 52 2 11 7 58 10 105 3 47 10 96 15 110 18 48 27
197 25 420 -1 124 -4 234 -7 245 -15 53 -22 146 -24 315 -1 102 -4 196 -7 210
-4 24 -12 78 -23 159 -2 19 -7 48 -10 65 -3 17 -7 42 -9 56 -5 34 -39 227 -50
280 -39 187 -93 415 -130 540 -33 112 -55 182 -65 200 -6 12 -27 65 -45 118
-19 54 -46 126 -60 162 -14 36 -30 86 -35 111 -5 25 -38 115 -74 199 -43 101
-62 156 -55 161 13 8 -13 70 -107 254 -154 305 -328 599 -498 839 -38 55 -80
120 -92 145 -49 102 -239 347 -443 571 -256 281 -302 320 -365 311 -27 -4 -79
49 -65 65 9 11 18 9 47 -11 45 -31 56 -23 17 11 -17 14 -52 47 -80 73 -99 95
-145 130 -160 124 -17 -6 -75 48 -75 71 0 7 -8 20 -19 27 -10 8 -61 48 -112
89 -264 213 -584 429 -897 607 -195 110 -559 287 -767 372 -110 45 -213 89
-230 97 -16 8 -56 28 -88 45 -198 101 -894 283 -1273 333 -16 2 -81 11 -144
19 -108 15 -149 19 -295 32 -33 3 -85 8 -115 11 -63 7 -826 15 -831 9z m889
-239 c12 -1 22 -5 22 -9 0 -4 0 -14 0 -22 0 -8 -6 -12 -12 -10 -14 5 -87 13
-125 14 -16 1 -23 7 -23 20 0 20 1 20 138 7z m-1480 -49 c3 -12 -4 -17 -20
-17 -13 0 -29 -5 -36 -12 -13 -13 -17 -42 -4 -35 4 3 34 8 67 12 33 4 71 9 85
10 102 13 185 20 242 20 75 0 97 -15 98 -67 0 -26 3 -28 40 -28 38 0 40 -1 41
-32 0 -18 2 -50 5 -70 2 -28 0 -38 -11 -39 -57 -5 -70 -3 -71 11 -4 61 -1 58
-44 53 l-40 -6 -2 39 c0 22 -2 44 -3 49 -2 6 -3 23 -4 38 0 16 -5 26 -9 23 -4
-2 -44 -7 -88 -11 -43 -3 -88 -8 -99 -10 -11 -2 -27 -4 -36 -4 -10 -1 -16 -9
-15 -18 1 -14 -13 -19 -77 -28 -64 -9 -80 -9 -84 2 -3 8 -21 13 -43 13 -38 0
-50 11 -50 49 0 12 13 22 41 30 27 8 39 17 35 26 -3 9 4 15 22 17 43 6 57 2
60 -15z m-268 -127 c45 0 57 -26 18 -35 -111 -26 -214 -40 -220 -31 -11 16 -9
26 5 26 7 0 42 15 77 34 52 27 67 31 73 20 5 -8 24 -14 47 -14z m1507 7 c6 -4
9 -17 8 -29 -1 -13 -3 -35 -4 -50 -1 -25 -4 -27 -38 -24 -30 1 -38 6 -43 26
-4 16 -19 31 -43 43 -62 29 -49 46 36 43 41 -2 78 -6 84 -9z m-1963 -83 c13
-34 6 -52 -25 -63 -27 -9 -34 -8 -44 6 -12 16 -14 16 -39 -1 -15 -9 -26 -22
-25 -29 6 -45 2 -47 -74 -45 -40 1 -78 -1 -84 -5 -6 -4 -14 0 -17 9 -8 21 -11
18 49 38 28 9 63 28 79 42 16 16 55 34 95 44 84 23 78 23 85 4z m2256 -10 c47
-4 90 -8 95 -8 6 -1 10 -17 10 -36 0 -33 -2 -35 -30 -33 -109 6 -117 7 -126
24 -5 10 -25 21 -44 25 -24 4 -35 12 -35 24 0 12 7 17 23 15 12 -1 60 -6 107
-11z m-312 -50 c13 -2 22 -10 19 -17 -3 -9 -35 -11 -117 -10 -62 2 -115 5
-118 8 -3 2 0 10 6 18 8 9 35 12 99 10 48 -2 98 -6 111 -9z m660 6 c1 0 2 -14
2 -30 0 -19 -6 -33 -16 -37 -23 -9 -70 11 -66 28 2 7 4 22 5 32 1 18 4 18 75
7z m-2334 -64 c-3 -8 -17 -22 -30 -31 -13 -8 -24 -22 -24 -30 0 -7 -10 -17
-22 -20 -13 -4 -30 -9 -39 -11 -9 -3 -19 3 -23 11 -4 12 3 19 24 26 16 6 32
19 35 29 3 10 22 22 43 28 20 5 38 10 39 11 1 1 0 -5 -3 -13z m3317 -16 c35
-11 70 -22 76 -25 23 -8 2 -34 -30 -37 -30 -3 -29 -5 36 -36 67 -32 82 -55 29
-46 -62 11 -132 35 -129 46 1 6 -14 21 -34 32 -33 20 -35 23 -27 54 5 17 10
32 12 32 2 0 32 -9 67 -20z m-846 -18 c17 -13 91 -95 80 -89 -5 3 -28 8 -50
12 -22 4 -47 8 -55 10 -8 2 -23 4 -32 4 -13 1 -17 7 -14 24 3 12 5 28 5 35 1
13 50 16 66 4z m-570 -32 c20 0 23 -4 20 -27 -2 -16 -4 -32 -4 -36 -1 -5 -18
-7 -38 -5 -39 3 -39 3 -35 62 2 12 7 16 18 12 9 -3 26 -6 39 -6z m316 0 c10 0
19 -7 19 -15 0 -8 17 -19 39 -26 30 -9 37 -15 34 -30 -5 -17 -9 -16 -62 11
-31 17 -64 30 -73 30 -10 0 -18 6 -18 13 0 19 12 29 28 22 7 -3 22 -5 33 -5z
m-3027 -19 c3 -5 -12 -16 -34 -25 -27 -11 -40 -22 -38 -32 2 -12 -17 -24 -70
-44 l-73 -29 -14 32 c-16 38 -18 37 99 78 84 30 121 35 130 20z m935 -84 c1
-19 10 -18 156 9 77 14 87 9 83 -36 -3 -28 -21 -31 -97 -18 -33 6 -80 1 -194
-22 -83 -17 -155 -29 -160 -27 -18 6 58 46 99 53 40 6 41 7 34 38 -6 29 -9 31
-47 29 -56 -3 -67 23 -15 36 122 31 116 31 129 -8 6 -20 12 -44 12 -54z m3762
20 c-1 -4 -1 -13 -1 -21 0 -10 -19 -6 -75 17 -53 22 -75 36 -75 49 0 16 7 15
76 -10 41 -16 75 -31 75 -35z m-3213 -14 c-3 -14 -18 -20 -73 -26 -47 -6 -71
-5 -73 2 -6 17 1 25 22 28 11 2 21 4 22 6 1 1 26 3 54 5 44 2 51 0 48 -15z
m-1765 -191 c-13 -7 -28 -24 -33 -36 -6 -16 -29 -31 -75 -50 -62 -25 -85 -26
-85 -7 0 5 25 21 55 36 30 14 60 35 66 46 9 18 7 19 -29 13 -68 -11 -55 12 26
43 l77 31 11 -32 c10 -28 9 -32 -13 -44z m5154 56 c15 -7 29 -13 31 -13 4 -3
-19 -65 -24 -65 -10 0 -74 29 -74 34 0 13 24 56 31 56 4 0 21 -5 36 -12z
m-3456 -15 c4 -5 10 -27 13 -50 4 -36 3 -43 -12 -44 -9 0 -26 -2 -37 -4 -31
-5 -95 -13 -95 -11 -1 0 -3 27 -7 59 -4 46 -3 56 8 52 8 -2 30 -1 49 4 38 8
69 6 81 -6z m2953 -63 c78 -40 69 -54 -16 -23 -87 31 -80 27 -72 46 6 18 15
15 88 -23z m-5094 13 c19 -3 36 -6 37 -7 3 -2 -114 -100 -123 -103 -5 -2 -19
18 -30 44 l-21 48 26 18 c17 11 35 15 51 11 14 -3 41 -8 60 -11z m1761 -55
c-13 -10 -32 -18 -42 -18 -25 0 -23 0 -61 -11 -30 -8 -31 -8 -15 9 19 19 117
52 131 44 5 -3 -1 -13 -13 -24z m4747 -34 c2 -1 -4 -16 -13 -32 l-18 -29 -37
20 -37 21 19 33 20 33 31 -22 c18 -12 34 -23 35 -24z m-3078 4 c8 -10 25 -20
37 -21 17 -1 19 -4 11 -14 -6 -7 -16 -13 -23 -13 -6 0 -20 -9 -30 -21 -15 -15
-27 -19 -55 -15 -19 3 -50 5 -67 6 -27 0 -33 4 -33 21 0 13 6 20 18 18 41 -4
50 2 56 34 6 31 9 33 38 29 18 -3 39 -13 48 -24z m2130 17 c8 -1 20 2 27 7 13
10 143 -50 143 -67 0 -20 -121 -11 -174 13 -27 12 -52 22 -57 22 -5 0 -9 9 -9
21 0 18 4 20 28 14 15 -4 34 -8 42 -10z m-2667 -44 c5 -1 7 -8 5 -17 -2 -14
-16 -17 -71 -16 -76 1 -84 3 -64 23 11 12 73 16 130 10z m-573 -42 c0 -20 -3
-20 -100 -23 -36 -1 -45 3 -48 18 -2 10 0 16 5 13 4 -2 28 -2 53 2 82 11 90
10 90 -10z m-1732 -128 c12 -32 22 -61 22 -64 0 -4 -14 -14 -31 -23 -25 -12
-33 -13 -39 -3 -5 8 -21 10 -44 6 -43 -7 -45 1 -11 50 18 27 22 41 15 54 -8
14 -5 19 18 27 43 16 46 15 70 -47z m1953 37 c6 -11 -3 -19 -44 -36 -29 -12
-72 -24 -97 -28 -62 -7 -70 -11 -64 -28 4 -11 21 -13 76 -9 63 5 70 3 66 -12
-2 -10 -13 -19 -28 -20 -14 -1 -61 -6 -105 -9 -44 -4 -95 -9 -112 -12 -28 -4
-33 -2 -33 15 0 12 -1 24 -2 29 -10 41 -14 82 -9 90 6 9 42 14 211 28 41 3 76
7 77 8 9 8 57 -4 64 -16z m3713 -84 c24 6 89 -31 83 -48 -2 -6 -13 -9 -23 -8
-10 2 -37 5 -59 6 -27 2 -65 17 -118 49 -43 26 -83 47 -87 47 -14 0 -21 17
-14 33 4 12 24 5 102 -35 58 -29 105 -47 116 -44z m-4947 11 c11 -34 11 -35
-22 -41 -19 -3 -40 -2 -47 2 -7 5 -26 9 -43 9 -51 0 -36 27 25 46 75 23 75 23
87 -16z m4397 14 l25 -12 -31 -61 c-17 -33 -32 -63 -34 -65 -6 -6 -113 51
-126 67 -9 10 -6 18 9 33 16 17 24 18 47 9 25 -9 30 -7 48 15 22 28 27 29 62
14z m-2310 -39 c-1 -14 -2 -30 -3 -36 -1 -12 -121 -7 -135 6 -15 15 66 60 104
57 30 -2 35 -5 34 -27z m-1627 -32 c8 -52 8 -53 -19 -61 -16 -4 -28 -14 -28
-23 0 -16 -47 -37 -67 -30 -22 9 -15 56 12 78 16 13 25 29 25 48 0 28 7 33 57
39 6 0 15 -21 20 -51z m-2282 4 c0 -7 -29 -30 -65 -51 -54 -33 -66 -37 -73
-24 -11 18 -15 13 58 57 60 36 80 40 80 18z m4333 -7 c2 -2 1 -17 -3 -34 -5
-23 -12 -31 -28 -31 -38 0 -50 14 -42 49 6 30 9 32 38 25 18 -3 34 -8 35 -9z
m-710 -49 c4 -17 -1 -18 -46 -14 -27 3 -60 12 -73 22 -23 16 -22 17 46 14 59
-3 70 -6 73 -22z m-2525 0 c98 -1 90 -22 -27 -68 -94 -39 -115 -44 -117 -30
-7 64 -6 79 9 95 12 13 24 17 42 12 14 -4 55 -8 93 -9z m1562 -14 c59 -7 59
-7 34 -23 -36 -24 -171 -40 -184 -23 -5 7 -22 18 -37 23 -39 14 -35 26 9 29
21 2 40 5 43 8 3 3 21 3 40 -1 19 -3 62 -9 95 -13z m4243 -39 c28 -19 52 -37
52 -41 0 -4 -9 -18 -19 -31 -18 -24 -20 -24 -45 -8 -40 26 -48 21 -31 -19 22
-53 19 -55 -27 -29 -24 14 -59 25 -78 25 -37 1 -156 67 -152 85 3 14 93 14
122 -1 18 -8 31 -9 43 -2 13 7 27 4 52 -12 39 -24 42 -17 20 37 -22 53 -28 54
63 -4z m-3418 -13 c0 -15 7 -20 24 -20 27 0 41 -15 41 -45 0 -14 9 -21 30 -25
26 -4 30 -10 33 -41 l3 -36 -73 3 c-40 2 -83 3 -96 3 -12 1 -26 9 -30 19 -5
12 -17 18 -37 18 l-30 -1 -3 73 -3 72 71 0 c63 0 70 -2 70 -20z m-401 -20 c9
-27 20 -35 44 -31 7 1 9 -5 11 -31 1 -8 -20 -13 -62 -15 -51 -2 -70 2 -97 20
-44 28 -52 47 -20 47 14 0 30 9 37 20 9 13 24 20 44 20 27 0 34 -5 43 -30z
m-981 -42 c2 -16 0 -28 -5 -29 -4 0 -18 -2 -30 -5 -24 -4 -27 -1 -37 39 -7 28
-6 28 31 25 33 -3 38 -7 41 -30z m2344 -3 c21 -14 42 -25 48 -25 5 0 10 -9 10
-20 0 -16 -7 -20 -34 -20 -19 0 -38 -4 -41 -10 -11 -17 -65 -12 -65 6 0 9 -13
21 -30 27 -35 13 -37 25 -11 54 25 26 71 22 123 -12z m-3069 -32 c2 -10 8 -25
11 -34 6 -13 -1 -20 -26 -28 -22 -8 -34 -8 -36 -1 -6 17 -39 11 -127 -24 -46
-19 -86 -31 -89 -28 -12 11 -6 40 12 62 15 19 22 21 39 11 18 -9 37 -5 110 23
105 41 99 40 106 19z m3947 -44 c47 -17 104 -38 128 -46 23 -8 42 -18 42 -21
-1 -28 -23 -26 -142 17 -97 35 -128 50 -128 64 0 22 0 22 100 -14z m-1380 -31
c0 -31 -12 -48 -38 -53 -55 -10 -22 60 36 74 1 1 2 -9 2 -21z m-1263 -14 c8
-7 27 -14 43 -14 25 0 28 -3 28 -35 0 -26 -4 -35 -16 -36 -10 0 -25 -2 -34 -4
-10 -2 -17 0 -17 3 5 34 -5 51 -36 66 -20 10 -33 20 -31 24 8 14 48 11 63 -4z
m4732 -21 c11 -12 10 -18 -9 -39 -29 -30 -29 -30 -63 0 l-28 24 21 20 c23 21
54 19 79 -5z m-5201 -37 c-113 -69 -124 -74 -126 -53 0 6 -3 21 -5 32 -4 17 5
22 57 36 52 13 62 13 69 2 5 -8 7 -15 5 -17z m4663 18 c21 -11 34 -12 43 -5 9
7 26 0 62 -25 27 -20 56 -39 63 -44 12 -7 10 -15 -12 -49 -15 -23 -32 -41 -37
-41 -19 0 -120 75 -120 89 0 8 -12 27 -26 42 -14 15 -23 32 -20 38 9 14 11 14
47 -5z m-1705 -55 c-3 -15 -12 -44 -20 -64 -13 -31 -19 -35 -38 -30 -37 12
-39 19 -19 78 27 78 28 79 57 60 21 -13 25 -22 20 -44z m2009 1 c0 -12 11 -29
24 -39 35 -27 10 -34 -41 -11 -46 20 -78 43 -78 54 0 4 8 18 18 31 17 23 17
23 47 5 18 -12 30 -28 30 -40z m-3843 30 c9 -13 24 -20 45 -20 25 0 33 -4 33
-18 0 -15 -12 -18 -95 -19 -52 -1 -95 -1 -95 1 0 2 15 19 33 39 36 41 61 46
79 17z m-1322 -30 c0 -11 -3 -20 -7 -20 -5 0 -24 -4 -43 -9 -21 -5 -46 -4 -60
2 -23 9 -20 11 35 27 77 23 75 23 75 0z m4745 -46 c30 -20 55 -40 55 -44 0 -4
-16 -7 -34 -5 -19 1 -40 -1 -47 -5 -12 -8 -69 19 -69 33 0 9 30 57 36 57 3 0
29 -16 59 -36z m-7256 -25 c-64 -50 -127 -89 -154 -95 l-30 -6 20 20 c11 11
54 45 94 76 65 49 76 54 84 40 7 -13 4 -22 -14 -35z m6788 -33 c1 -1 -2 -8 -7
-15 -7 -12 -13 -12 -40 -1 -22 9 -34 10 -42 2 -8 -8 -19 -7 -39 4 -34 17 -34
16 -14 54 l15 29 62 -35 c35 -20 64 -37 65 -38z m-3585 -1 c4 -34 4 -34 -42
-41 -69 -9 -82 -14 -76 -30 6 -16 -2 -21 -54 -28 -19 -3 -56 -9 -82 -14 -41
-8 -48 -7 -53 8 -5 16 -11 16 -65 5 -33 -7 -62 -10 -65 -7 -17 18 1 32 54 43
48 9 61 16 63 32 4 27 40 31 80 8 18 -10 52 -21 74 -25 41 -6 42 -5 48 28 7
36 29 50 86 54 25 2 28 -2 32 -33z m1931 -33 c-1 -42 -2 -42 -39 -34 -29 7
-30 9 -22 40 8 29 13 33 36 30 24 -3 27 -7 25 -36z m1844 -35 c79 -52 99 -88
37 -68 -16 6 -48 15 -71 21 -31 8 -43 16 -43 29 0 10 -12 26 -26 36 -20 13
-23 19 -14 30 14 17 23 13 117 -48z m-1709 28 c2 -1 -3 -25 -11 -51 -12 -43
-17 -49 -38 -46 -35 5 -40 15 -28 53 6 19 13 40 15 48 3 9 13 11 32 6 15 -4
28 -8 30 -10z m2704 -35 l53 -20 22 27 22 27 48 -40 c26 -21 93 -79 148 -128
55 -49 102 -90 104 -92 2 -2 1 -10 -3 -19 -7 -20 -17 -14 -114 73 -67 61 -71
63 -130 67 -34 2 -62 0 -62 -4 0 -22 -29 -16 -61 11 -19 17 -58 49 -86 70 -29
22 -53 46 -53 53 0 21 13 25 36 10 12 -8 47 -24 76 -35z m-7581 18 c36 -39 41
-66 23 -115 -9 -24 -29 -53 -44 -63 l-28 -20 -16 25 c-21 32 -20 36 10 60 l25
20 -29 41 c-28 38 -29 43 -14 58 22 22 47 20 73 -6z m3826 9 c5 -4 8 -20 5
-36 -4 -30 -5 -30 -61 -27 -31 2 -58 5 -61 5 -3 1 -6 17 -6 36 l0 35 57 -4
c31 -2 61 -6 66 -9z m498 -17 c8 0 17 -9 20 -20 3 -11 17 -23 31 -26 13 -3 24
-12 24 -20 0 -32 -107 -5 -119 30 -11 27 -2 49 16 42 8 -3 21 -6 28 -6z
m-5082 -34 c3 -8 -15 -29 -45 -52 -67 -52 -79 -55 -99 -30 -17 20 -16 22 8 48
19 20 32 26 52 22 15 -3 34 1 46 10 25 19 31 20 38 2z m115 -63 c-28 -30 -42
-29 -63 4 -18 26 -17 27 11 50 l29 23 22 -27 22 -27 -21 -23z m3970 39 c-3
-14 -18 -18 -92 -22 -69 -4 -90 -2 -94 9 -8 21 10 26 103 28 77 2 86 1 83 -15z
m250 -51 c-3 -67 -4 -70 -30 -73 -16 -3 -29 0 -29 6 -1 6 -2 39 -3 74 l-2 62
33 0 33 0 -2 -69z m-3905 46 c3 -8 -20 -32 -57 -59 -51 -39 -62 -44 -70 -30
-6 11 -3 19 10 29 10 8 28 22 40 32 23 20 55 40 65 41 4 0 9 -6 12 -13z m1377
-11 c0 -23 -127 -126 -155 -126 -5 0 -17 13 -26 29 l-16 28 91 46 c90 44 106
48 106 23z m156 4 c7 -7 19 -8 36 -1 14 5 29 7 32 4 17 -17 0 -34 -56 -60 -35
-15 -128 -60 -208 -100 -85 -43 -148 -69 -153 -64 -15 15 0 28 86 71 85 43
127 75 127 95 0 6 26 23 58 38 67 30 65 30 78 17z m5609 -77 c67 -36 102 -70
88 -83 -9 -10 -32 1 -102 48 -50 33 -85 62 -78 65 16 5 44 -4 92 -30z m-5222
-2 c3 -13 -1 -21 -14 -24 -10 -3 -23 -16 -28 -29 -8 -22 -57 -49 -110 -60 -32
-7 -19 23 18 41 22 12 47 31 55 43 14 20 52 47 67 48 4 0 9 -9 12 -19z m807
-21 c0 -13 -9 -22 -27 -26 -84 -19 -107 -28 -127 -48 -28 -31 -66 -42 -77 -25
-8 13 -13 59 -6 59 2 0 39 9 83 21 43 11 93 23 109 26 17 3 32 7 34 9 8 8 11
4 11 -16z m1362 -2 c7 -9 22 -18 33 -20 18 -3 23 -24 16 -69 -1 -4 -14 -6 -30
-5 -19 0 -29 6 -29 16 1 22 -18 64 -37 84 -16 16 -16 17 9 14 14 -2 32 -11 38
-20z m-612 -5 c0 -15 -10 -19 -52 -21 -29 -2 -69 -5 -90 -7 -21 -2 -38 0 -38
5 0 6 0 13 0 18 -1 8 50 16 128 20 44 3 52 0 52 -15z m-1805 -53 l15 -29 -41
-21 c-22 -12 -48 -34 -57 -50 -9 -16 -25 -31 -34 -34 -10 -2 -18 -13 -18 -25
0 -11 -9 -25 -19 -31 -34 -18 -42 -12 -26 20 8 16 15 34 15 41 0 6 11 20 25
31 19 14 24 27 22 51 -2 29 2 34 43 54 58 28 57 28 75 -7z m2763 4 c6 -2 12
-11 12 -20 0 -24 -76 -12 -104 15 l-21 21 50 -6 c28 -3 56 -7 63 -10z m-720
-12 c13 -13 32 -18 70 -17 29 1 52 -2 52 -5 0 -12 -47 -32 -81 -33 -23 -1 -34
-7 -34 -17 0 -9 -11 -16 -30 -18 l-30 -3 0 56 c0 46 2 55 17 55 10 0 26 -8 36
-18z m-1553 -20 c0 -15 -132 -65 -146 -56 -19 12 -6 23 54 48 66 27 92 29 92
8z m842 -6 c4 -8 19 -16 33 -18 20 -2 26 -9 28 -35 2 -25 -1 -33 -12 -33 -21
0 -21 0 -54 -10 -40 -11 -49 -3 -56 52 -5 39 -4 47 11 51 33 8 42 7 50 -7z
m2316 -22 c-2 -7 8 -19 24 -27 25 -14 26 -16 9 -23 -10 -4 -51 0 -90 10 -39 9
-74 16 -78 16 -3 0 -9 -13 -13 -30 -7 -33 -21 -37 -49 -17 -28 20 -5 57 34 57
20 0 30 5 30 15 0 11 7 13 28 9 18 -4 32 -1 40 9 10 12 19 13 41 4 17 -6 27
-16 24 -23z m2152 -6 c43 -32 54 -51 36 -62 -4 -3 -32 12 -61 34 -66 49 -63
46 -55 60 9 15 25 8 80 -32z m368 -38 c5 -25 45 -69 122 -133 34 -29 28 -46
-10 -29 -26 12 -215 170 -215 180 0 3 10 16 21 28 l21 23 28 -21 c15 -11 30
-33 33 -48z m-1915 6 c36 -35 44 -48 35 -57 -17 -18 -126 29 -117 50 3 9 9 24
11 34 8 26 20 21 71 -27z m1536 -51 c15 -12 17 -17 7 -29 -11 -13 -20 -9 -64
26 -29 22 -52 44 -51 49 1 5 2 14 3 20 1 9 29 -9 105 -66z m-4068 31 l36 -33
-33 -5 c-45 -7 -83 5 -87 26 -10 51 34 58 84 12z m-2738 -8 c10 -10 1 -19 -40
-45 -62 -40 -81 -41 -96 -8 -10 22 -9 27 13 41 14 9 33 13 44 9 11 -3 29 -2
38 4 23 13 27 13 41 -1z m1341 -2 c10 -11 8 -16 -7 -20 -10 -4 -31 -20 -46
-36 -32 -37 -40 -37 -55 -3 -14 31 -9 38 44 57 51 19 50 19 64 2z m3597 -32
c3 -13 4 -30 1 -38 -3 -8 1 -17 10 -20 17 -7 63 18 63 34 0 13 12 13 44 1 23
-9 24 -12 13 -41 -9 -25 -17 -30 -34 -27 -13 2 -30 -1 -39 -8 -14 -10 -27 -8
-68 7 -28 11 -53 21 -55 23 -1 2 4 26 14 54 17 54 40 60 51 15z m1674 22 c15
-9 31 -11 40 -6 21 11 73 -30 107 -84 14 -22 41 -54 59 -69 19 -16 34 -37 34
-48 0 -26 -5 -25 -61 19 -33 25 -48 44 -49 60 0 31 -40 64 -58 50 -17 -15
-123 57 -115 78 6 17 11 17 43 0z m-8060 -2 c0 -3 -9 -17 -19 -31 -16 -19 -18
-29 -9 -47 12 -27 37 -25 64 5 17 19 18 19 41 -3 13 -12 23 -25 23 -30 0 -15
-42 -50 -55 -45 -7 3 -28 -5 -48 -18 l-34 -24 -24 25 -23 24 -26 -25 c-32 -31
-40 -31 -40 -4 0 56 89 179 130 179 11 0 20 -3 20 -6z m2033 -34 l18 -30 -40
-6 c-50 -8 -76 -34 -67 -68 4 -18 0 -28 -19 -40 -24 -16 -25 -16 -54 31 l-29
47 81 47 c45 27 84 48 87 48 3 1 14 -12 23 -29z m3295 12 c10 -7 10 -15 2 -36
l-10 -28 -78 7 c-87 8 -93 10 -85 30 3 11 16 14 39 12 18 -3 44 2 56 8 27 15
58 18 76 7z m4213 -84 c64 -69 75 -85 66 -100 -9 -14 -6 -22 13 -43 31 -33 5
-35 -36 -2 -49 38 -73 71 -62 84 6 8 6 19 -2 32 -10 20 -23 24 -60 23 -8 -1
-26 13 -39 30 -24 30 -24 31 -6 44 10 8 26 14 34 14 9 0 50 -37 92 -82z
m-8691 38 c-5 -15 -10 -37 -10 -49 0 -12 -12 -30 -26 -40 -24 -18 -26 -18 -45
-1 -26 23 -24 36 9 65 31 28 76 58 80 54 1 -1 -2 -14 -8 -29z m4849 4 c21 -10
41 -25 44 -33 8 -22 -8 -38 -34 -33 -89 18 -88 17 -83 44 9 49 17 51 73 22z
m-4599 -48 c0 -4 -12 -15 -26 -26 -26 -19 -26 -19 -49 9 l-22 29 26 23 26 23
23 -26 c12 -14 22 -28 22 -32z m3818 -6 c-3 -30 -4 -31 -56 -31 -75 -1 -76 5
-13 53 14 11 34 17 48 14 20 -4 24 -10 21 -36z m-1815 -30 c4 -9 -18 -21 -76
-41 -76 -26 -89 -25 -88 2 0 8 116 51 142 52 9 1 19 -5 22 -13z m3794 -9 c4
10 11 9 34 -2 28 -15 29 -16 14 -45 -13 -25 -18 -28 -39 -20 -18 6 -28 5 -36
-5 -10 -13 -16 -12 -41 0 -28 15 -28 15 -13 49 16 32 18 33 47 22 23 -8 31 -8
34 1z m1291 -33 c26 -18 27 -27 6 -48 -19 -19 -35 -20 -58 -3 -18 13 -18 15
-1 40 20 31 23 32 53 11z m-6868 -13 c-5 -11 -44 -47 -85 -81 -47 -39 -77 -71
-82 -88 -6 -27 -19 -41 -82 -90 -19 -15 -42 -35 -52 -46 -17 -18 -49 -16 -49
2 0 6 15 21 33 34 46 36 105 98 125 132 16 28 176 156 194 156 5 0 4 -9 -2
-19z m2323 4 c15 -4 27 -12 28 -19 0 -6 2 -21 5 -33 3 -19 -3 -23 -47 -32 -27
-6 -52 -11 -54 -11 -6 0 -25 71 -25 92 0 18 32 19 93 3z m-3629 -44 c14 -15
16 -27 10 -57 -5 -22 -8 -42 -9 -46 0 -4 -24 -32 -54 -63 -41 -43 -57 -53 -67
-44 -10 8 -22 1 -51 -32 -21 -23 -56 -63 -79 -88 l-41 -45 -26 25 -26 24 76
85 c41 47 82 84 89 82 8 -2 28 7 45 18 24 18 28 25 18 36 -7 8 -10 16 -8 19 2
2 24 27 49 55 25 27 48 50 51 50 3 0 14 -9 23 -19z m2726 16 c0 -2 -16 -21
-35 -43 -28 -30 -35 -46 -32 -67 3 -23 -1 -31 -21 -38 -14 -5 -25 -8 -26 -7
-1 2 -11 24 -23 50 l-22 46 72 31 c69 29 87 35 87 28z m2056 -62 c-1 -38 -1
-38 -61 -37 -118 2 -110 0 -89 23 25 28 71 47 115 48 35 1 36 0 35 -34z
m-2558 9 c-2 -8 -38 -34 -81 -57 -65 -35 -79 -40 -87 -27 -7 12 7 24 68 57 83
46 105 52 100 27z m2002 1 c0 -7 -4 -16 -8 -19 -14 -8 -92 -14 -96 -7 -8 13 9
29 34 33 60 8 70 7 70 -7z m1230 0 c0 -9 11 -21 25 -27 29 -13 28 -34 -1 -32
-36 2 -129 16 -136 21 -13 7 -9 33 5 34 32 1 70 8 75 13 11 12 32 6 32 -9z
m-5061 -34 l30 -28 -23 -23 c-17 -15 -40 -23 -80 -26 -30 -2 -57 0 -60 4 -11
19 67 102 95 102 4 0 21 -13 38 -29z m-195 -16 c32 -48 -5 -90 -49 -57 -35 25
-39 44 -15 64 30 24 45 23 64 -7z m6865 -32 c37 -16 53 -32 34 -34 -29 -3 -59
-11 -66 -18 -14 -14 -117 47 -110 65 7 20 83 13 142 -13z m-3905 -9 c9 -8 16
-19 16 -24 0 -6 11 -5 26 0 33 13 34 13 34 -8 0 -13 -14 -23 -51 -34 l-50 -17
-10 25 c-22 60 -1 95 35 58z m-409 -40 c20 -48 19 -61 -5 -74 -17 -9 -22 -5
-40 32 -11 23 -20 46 -20 50 0 7 26 22 47 27 2 1 10 -15 18 -35z m-821 10 c4
-9 5 -18 4 -19 -2 -1 -24 -14 -50 -29 -60 -35 -67 -13 -11 33 43 36 49 37 57
15z m950 -30 c22 -21 20 -29 -9 -42 -26 -12 -29 -10 -44 32 -10 24 -8 26 14
26 13 0 31 -7 39 -16z m-640 -61 c-10 -8 -18 -21 -16 -29 3 -16 -24 -43 -43
-44 -6 0 -18 13 -27 28 l-17 28 52 30 c44 26 53 28 61 16 6 -11 3 -19 -10 -29z
m7689 -80 l-28 -23 -22 25 c-29 30 -29 42 0 66 22 19 22 18 50 -14 l28 -32
-28 -22z m-6588 17 c3 -6 -3 -22 -13 -35 -17 -21 -19 -31 -11 -60 6 -20 8 -39
4 -44 -7 -12 -45 -2 -74 21 -13 10 -30 18 -37 18 -27 0 -14 27 21 43 20 9 38
24 42 33 3 9 15 20 27 24 28 12 34 12 41 0z m-3921 -28 c15 -17 15 -22 1 -48
-8 -16 -13 -36 -10 -45 3 -8 -6 -29 -19 -47 -20 -28 -25 -30 -36 -18 -6 9 -8
21 -4 27 4 7 7 31 5 54 -2 50 13 95 32 95 8 0 21 -8 31 -18z m10106 -127 c35
-44 68 -83 73 -86 5 -4 11 -19 12 -33 2 -15 13 -45 25 -68 11 -22 22 -56 24
-75 1 -18 7 -37 12 -41 5 -5 28 -23 52 -41 23 -18 42 -36 42 -40 0 -3 -12 -14
-27 -23 l-26 -16 -44 60 c-35 47 -42 63 -33 73 14 17 12 20 -57 108 -30 37
-67 93 -84 125 -20 39 -46 71 -79 96 -28 21 -50 41 -50 44 0 3 10 16 22 29
l21 23 26 -28 c14 -15 55 -63 91 -107z m-7755 98 c17 -25 17 -27 -6 -44 -24
-18 -24 -17 -46 9 l-22 27 20 18 c28 23 34 22 54 -10z m5929 9 c15 -18 15 -21
-5 -45 -20 -26 -21 -26 -44 -9 -22 16 -22 18 -7 45 19 32 33 34 56 9z m1082
-34 c54 -57 59 -68 37 -68 -18 0 -103 73 -103 88 0 10 11 22 20 22 4 0 25 -19
46 -42z m-7946 -51 c0 -5 -50 -59 -111 -120 -84 -86 -109 -116 -105 -132 4
-16 -6 -26 -56 -53 -81 -44 -99 -30 -41 31 216 220 242 257 213 292 -10 12 -8
19 11 34 l24 20 33 -32 c17 -17 32 -35 32 -40z m8561 -37 c30 -36 56 -67 59
-70 3 -3 20 -24 39 -48 26 -34 31 -45 21 -57 -9 -11 1 -31 54 -101 36 -48 66
-91 66 -96 0 -13 -16 -9 -38 10 -15 13 -262 318 -307 378 -6 9 -2 21 15 39 13
14 27 22 30 18 4 -5 31 -37 61 -73z m-10089 24 c4 -3 0 -17 -8 -32 -11 -23
-11 -30 1 -49 8 -12 15 -27 15 -33 0 -6 -28 -48 -61 -93 -34 -45 -64 -88 -67
-95 -2 -8 -13 -12 -23 -9 -10 3 -27 -5 -40 -19 -12 -13 -25 -21 -29 -19 -17
10 -2 104 21 137 133 189 172 232 191 212z m2676 -28 c-1 -2 -35 -23 -75 -49
-49 -31 -73 -42 -76 -33 -7 19 1 27 72 74 56 37 66 41 74 27 5 -9 7 -18 5 -19z
m532 15 c16 -31 13 -36 -36 -60 -37 -19 -48 -21 -54 -10 -6 8 2 23 21 43 16
16 29 33 29 38 0 16 30 8 40 -11z m4908 -100 c17 -16 32 -36 32 -44 0 -8 7
-20 15 -27 8 -7 15 -19 15 -27 0 -16 -61 -102 -73 -103 -12 0 -87 53 -87 63 0
4 18 32 40 62 l40 54 -22 15 c-12 9 -32 16 -43 16 -27 0 -88 73 -73 88 12 12
94 -40 156 -97z m-5869 75 c9 -11 -1 -24 -54 -66 -38 -29 -73 -49 -81 -46 -15
6 -20 26 -6 26 5 0 17 8 28 18 18 16 97 81 100 82 1 0 7 -6 13 -14z m7410
-108 c11 -30 -1 -38 -22 -15 -7 7 -27 29 -45 48 -22 24 -31 41 -26 53 6 15 12
12 45 -20 21 -20 43 -50 48 -66z m888 75 c7 -10 28 -38 45 -62 l31 -44 -37
-32 c-37 -31 -38 -33 -24 -61 9 -16 18 -44 22 -63 3 -19 19 -55 35 -81 l29
-47 -28 -16 c-15 -10 -31 -17 -34 -17 -3 0 -24 27 -47 61 -38 56 -40 62 -25
78 28 30 -11 82 -45 60 -21 -13 -23 -12 -43 23 l-19 32 24 15 c13 9 34 26 47
38 21 21 22 24 8 58 -14 33 -14 35 11 55 31 24 32 24 50 3z m-7487 -139 c0 -6
-7 -17 -15 -24 -8 -7 -15 -21 -15 -31 0 -11 -3 -19 -7 -20 -40 -4 -61 -14 -81
-39 -29 -37 -45 -38 -61 -3 -12 26 -10 29 23 56 20 16 36 37 36 47 0 11 18 28
43 43 l42 26 17 -22 c10 -12 18 -27 18 -33z m8079 -77 c20 -33 21 -38 6 -43
-9 -4 -17 -5 -19 -3 -2 2 -22 32 -45 67 -34 51 -40 66 -31 77 10 12 17 9 39
-23 15 -20 37 -54 50 -75z m-10635 -105 c15 -18 15 -20 -1 -34 -18 -16 -77
-48 -88 -48 -14 0 -2 42 21 69 30 36 44 38 68 13z m1885 -65 c-16 -13 -25 -15
-35 -6 -24 20 -27 49 -7 64 16 13 20 11 41 -13 l22 -27 -21 -18z m-894 32 c4
-5 0 -18 -8 -27 -8 -9 -12 -23 -10 -30 6 -17 -16 -62 -31 -62 -5 0 -20 10 -33
22 l-23 22 42 43 c44 45 53 50 63 32z m-1735 -113 c-22 -43 -37 -63 -46 -59
-20 7 -18 18 13 66 64 100 84 95 33 -7z m8733 38 c31 -30 35 -38 26 -55 -16
-31 -38 -34 -64 -9 -29 27 -40 67 -24 86 16 19 19 18 62 -22z m1871 -62 c33
-47 45 -58 58 -51 12 7 24 -4 56 -53 37 -56 39 -63 24 -74 -13 -10 -18 -8 -27
10 -6 11 -21 23 -34 24 l-23 4 18 -31 c14 -24 16 -33 6 -43 -6 -6 -13 -10 -15
-7 -38 46 -71 110 -72 139 -1 21 -13 52 -32 80 -23 33 -29 48 -21 58 13 15 9
18 62 -56z m-1689 38 c9 -10 15 -26 12 -34 -3 -8 0 -22 8 -32 10 -14 10 -23 3
-32 -9 -10 -20 -4 -54 29 l-43 42 22 23 c27 29 29 29 52 4z m-7575 0 c0 -19
-39 -84 -72 -122 -24 -27 -37 -35 -48 -28 -15 9 -11 14 79 127 27 33 41 41 41
23z m9093 4 c9 -3 39 -42 68 -86 41 -62 50 -81 39 -88 -15 -9 -17 -7 -93 102
-57 80 -58 89 -14 72z m-9874 -13 c11 -7 5 -21 -29 -70 l-43 -61 -28 17 c-16
10 -29 20 -29 24 0 8 102 98 110 99 3 0 11 -4 19 -9z m405 -28 c91 -67 88 -62
65 -95 -11 -15 -24 -26 -29 -23 -5 3 -30 -17 -56 -44 -37 -39 -51 -48 -61 -39
-11 9 -11 15 4 37 9 14 23 32 30 39 36 37 34 49 -11 79 l-44 29 20 27 c11 15
22 27 25 27 3 0 28 -17 57 -37z m526 9 c19 -16 21 -21 11 -41 -7 -12 -11 -29
-9 -39 4 -23 -27 -66 -42 -57 -7 4 -24 -2 -40 -13 -20 -15 -30 -18 -38 -10 -8
8 -3 21 19 47 16 19 29 41 29 47 0 20 30 84 39 84 5 0 19 -8 31 -18z m729 -95
c8 -11 -16 -42 -113 -142 -100 -104 -124 -124 -130 -110 -5 13 2 28 23 49 143
150 152 162 148 183 -2 12 1 24 7 27 22 9 54 6 65 -7z m7179 -125 c45 -54 42
-80 -6 -45 -59 43 -70 46 -102 23 -40 -28 -38 -44 8 -65 61 -29 65 -35 36 -57
-23 -18 -28 -19 -51 -7 -14 8 -31 14 -38 14 -20 0 -127 122 -115 130 6 4 30
-5 55 -19 62 -37 69 -33 35 20 -33 53 -31 72 5 48 24 -16 26 -15 62 16 36 32
36 32 52 12 9 -11 35 -43 59 -70z m2229 -7 c29 -58 42 -75 57 -73 15 2 28 -14
57 -66 21 -39 35 -74 33 -78 -13 -21 -33 -2 -66 60 -27 51 -40 67 -55 65 -16
-2 -27 13 -53 68 -27 59 -34 99 -16 99 2 0 22 -34 43 -75z m-9897 15 c0 -3
-18 -25 -39 -50 -30 -34 -42 -42 -51 -34 -9 9 -6 22 11 55 12 24 26 47 32 51
10 6 47 -11 47 -22z m-1936 -67 c-11 -26 -12 -38 -4 -43 8 -5 6 -17 -6 -43
l-17 -35 -33 15 c-37 18 -37 20 14 106 27 46 36 56 47 47 11 -9 11 -17 -1 -47z
m504 21 c7 -5 -29 -64 -39 -64 -6 0 -20 8 -33 17 l-23 17 19 33 c21 35 18 35
76 -3z m10410 -40 c17 -31 32 -60 32 -65 0 -4 -13 -15 -28 -23 -27 -14 -29
-14 -46 15 -15 26 -18 81 -7 127 4 12 21 -8 49 -54z m-8532 -77 l25 -23 -41
-45 c-22 -24 -40 -39 -41 -34 -8 48 -5 84 7 103 18 27 19 27 50 -1z m9326 -84
c30 -57 42 -100 29 -108 -5 -3 -16 4 -25 16 -11 16 -26 23 -53 23 -33 2 -40 6
-54 36 l-17 35 37 21 c20 12 41 23 47 23 6 1 22 -20 36 -46z m-9928 -22 c17
-19 16 -21 -16 -65 -18 -25 -35 -45 -38 -45 -3 0 -16 8 -29 18 l-24 18 22 37
c20 32 45 55 62 56 3 0 14 -9 23 -19z m216 -60 c-43 -57 -48 -61 -64 -55 -45
17 -39 74 9 74 12 0 28 7 35 15 10 12 16 13 26 4 11 -9 10 -16 -6 -38z m476
-30 c1 -24 6 -46 12 -50 6 -4 -4 -21 -25 -45 -23 -25 -38 -35 -45 -28 -12 12
1 39 31 66 l21 19 -26 28 c-23 24 -25 31 -14 44 24 29 45 14 46 -34z m-2721
-10 c-12 -28 -13 -45 -4 -63 6 -11 -1 -38 -23 -85 -17 -37 -32 -69 -34 -71 -1
-2 -12 2 -24 8 -19 10 -21 17 -15 47 3 19 17 59 31 89 13 29 28 64 34 78 6 18
14 24 25 20 10 -4 14 -13 10 -23z m2759 -195 c-31 -36 -48 -44 -60 -24 -10 16
65 83 78 70 8 -8 2 -21 -18 -46z m7171 36 c11 -7 85 -118 85 -126 0 -6 -72
-56 -81 -56 -3 0 -20 20 -37 44 l-32 45 25 25 c21 21 23 29 15 50 -10 26 2 35
25 18z m2289 -178 c-12 -12 -27 -40 -33 -62 -10 -34 -18 -42 -59 -60 -82 -35
-87 -35 -100 -7 -19 42 -14 54 29 66 40 13 41 13 35 51 l-6 39 30 -16 c27 -14
31 -14 36 0 3 8 4 21 1 29 -3 8 -2 27 3 43 5 15 12 41 15 58 6 28 8 25 39 -45
l33 -75 -23 -21z m-10576 75 c-1 -15 6 -37 16 -48 16 -17 16 -22 2 -48 -16
-32 -31 -46 -59 -56 -16 -6 -18 -3 -12 22 5 22 1 35 -13 49 -19 19 -19 20 10
70 32 56 60 62 56 11z m8638 11 c11 -5 28 -19 36 -32 15 -23 15 -25 -3 -36
-24 -15 -43 -7 -73 33 -43 56 -35 63 40 35z m-119 -55 c10 -22 8 -27 -16 -45
l-28 -19 -14 25 c-12 24 -12 28 10 45 30 24 34 24 48 -6z m-8722 -28 c17 -13
17 -16 -11 -65 -16 -29 -33 -50 -39 -49 -18 6 -24 80 -9 105 17 25 32 28 59 9z
m-1408 -31 c-108 -274 -143 -356 -154 -356 -22 0 -15 26 41 169 83 210 84 211
102 204 8 -3 13 -11 11 -17z m-97 -41 c0 -8 -4 -23 -9 -33 -42 -78 -74 -183
-77 -251 -1 -40 -7 -78 -12 -83 -8 -8 -72 -2 -72 7 0 1 6 20 14 42 8 22 13 62
12 89 -3 54 15 108 38 117 7 3 26 30 41 60 14 30 29 58 32 61 12 12 33 6 33
-9z m1024 -50 c23 -15 23 -18 9 -45 l-14 -29 -33 17 c-33 16 -33 18 -20 45 17
31 26 33 58 12z m400 -53 c7 -11 -44 -113 -54 -107 -10 6 -4 48 11 88 11 26
32 36 43 19z m-236 -168 c-34 -69 -59 -110 -71 -112 -20 -4 -18 3 41 130 36
77 72 121 80 99 2 -5 -21 -58 -50 -117z m-74 27 c3 -5 -1 -21 -9 -37 -7 -16
-18 -41 -24 -56 -11 -29 -25 -36 -37 -17 -6 10 19 80 39 107 11 14 24 16 31 3z
m211 -27 c20 -15 20 -15 -4 -35 -26 -21 -30 -22 -49 -10 -18 11 -5 61 17 61 9
0 25 -8 36 -16z m10715 -55 c14 -34 8 -44 -31 -54 -22 -6 -27 -2 -36 30 -11
33 -10 37 10 45 36 14 44 11 57 -21z m-9675 -177 c-2 -11 -16 -42 -31 -71 -25
-45 -30 -50 -41 -36 -6 10 -9 23 -6 31 3 8 0 20 -6 28 -9 10 -6 23 10 54 22
40 23 41 50 26 18 -9 27 -20 24 -32z m-1005 -3 c0 -6 -5 -19 -10 -29 -9 -16
-15 -17 -40 -8 -33 11 -35 16 -19 52 11 24 13 24 40 10 16 -8 29 -19 29 -25z
m9060 20 c13 -24 15 -21 -30 -40 -38 -15 -61 -14 -72 4 -12 19 -10 22 25 40
44 22 64 21 77 -4z m2123 -86 c14 -46 14 -52 0 -57 -9 -4 -17 -5 -18 -4 -2 2
-13 36 -25 77 -18 60 -19 75 -8 82 15 10 26 -12 51 -98z m-11058 87 c3 -5 1
-17 -4 -27 -6 -10 -26 -52 -45 -93 -19 -41 -50 -92 -69 -112 -32 -35 -36 -37
-64 -26 l-30 11 21 58 c19 54 22 57 48 52 35 -7 67 26 92 96 17 48 37 64 51
41z m-978 -124 c-2 -6 -12 -36 -22 -66 -10 -30 -19 -56 -20 -58 -3 -3 -65 19
-65 24 0 3 19 31 41 64 27 38 47 56 56 53 8 -3 12 -11 10 -17z m-461 -3 c-35
-124 -48 -148 -68 -128 -3 3 4 37 15 75 16 55 24 70 39 70 14 0 18 -5 14 -17z
m2174 -28 c26 -14 28 -18 18 -39 -10 -24 -11 -24 -43 -9 -30 14 -32 18 -23 39
13 28 11 28 48 9z m8409 -148 c17 -46 31 -92 31 -103 0 -28 -24 -58 -41 -52
-23 9 -49 93 -40 126 6 18 4 42 -4 65 -7 20 -10 39 -7 42 17 16 33 -4 61 -78z
m1918 27 c28 -28 25 -33 -23 -48 -18 -5 -24 -1 -33 25 -6 18 -11 36 -11 40 0
19 42 8 67 -17z m-10917 -47 c0 -1 -8 -24 -18 -50 -23 -59 -69 -92 -116 -83
-48 10 -60 20 -52 50 5 22 11 25 30 20 27 -6 50 12 78 64 16 31 17 31 47 16
17 -9 31 -16 31 -17z m10740 -89 c6 -24 15 -58 20 -76 7 -26 5 -34 -9 -41 -13
-7 -16 -19 -13 -44 2 -19 -1 -38 -7 -41 -19 -12 -12 -44 13 -63 13 -11 29 -36
34 -56 9 -32 8 -37 -6 -38 -9 0 -27 -2 -39 -5 -17 -3 -22 2 -25 24 -2 16 -12
31 -25 37 -17 7 -25 25 -37 78 -9 38 -16 73 -16 77 0 4 20 11 45 14 24 4 47
11 50 16 3 5 -1 36 -10 69 -19 73 -19 91 0 91 8 0 19 -17 25 -42z m-10987 -61
c-21 -71 -27 -75 -36 -26 -7 35 18 90 37 83 13 -5 13 -12 -1 -57z m-1588 -9
c-3 -18 -7 -37 -9 -43 -1 -5 -6 -25 -10 -42 -5 -24 -13 -33 -27 -33 -15 0 -19
5 -15 18 2 9 12 43 20 75 11 37 22 57 32 57 12 0 14 -7 9 -32z m11793 19 c18
-21 55 -169 44 -176 -17 -11 -19 -36 -6 -86 11 -42 11 -52 -1 -65 -12 -14 -13
-27 -5 -70 5 -29 10 -57 10 -62 0 -15 -33 -4 -35 12 -2 8 -19 86 -40 173 -20
87 -38 187 -39 223 l-3 64 32 0 c18 0 37 -6 43 -13z m-11948 -37 c0 -8 -13
-65 -45 -207 -7 -29 -35 -30 -35 -2 0 26 38 177 51 201 10 19 29 25 29 8z
m12962 -102 c3 -17 -1 -42 -8 -56 -7 -13 -10 -34 -8 -47 3 -17 -2 -24 -17 -28
-12 -3 -19 -4 -16 -1 2 3 -4 38 -13 79 l-17 75 31 9 c39 10 43 8 48 -31z
m-10919 -4 c-2 -10 3 -29 9 -42 17 -33 -8 -57 -45 -43 -23 9 -25 13 -18 39 14
46 31 74 44 69 7 -2 11 -13 10 -23z m-463 -21 c0 -28 -34 -113 -46 -113 -17 0
-18 25 -3 71 6 19 12 40 15 46 3 12 34 8 34 -4z m156 -117 c-4 -19 -11 -38
-15 -41 -13 -7 -74 15 -88 33 -20 24 0 50 36 44 22 -3 33 1 43 17 13 21 13 21
22 2 5 -11 5 -36 2 -55z m-882 -67 c-2 -39 -11 -89 -18 -96 -3 -3 -12 -3 -20
0 -11 5 -12 14 -5 44 5 21 12 51 15 66 9 38 29 28 28 -14z m952 -86 c-3 -16
-9 -41 -12 -56 -5 -20 -2 -31 11 -41 16 -12 14 -15 -26 -42 -36 -24 -46 -38
-54 -72 -8 -38 -12 -43 -35 -40 -14 1 -30 6 -36 10 -17 12 -5 56 18 61 11 3
22 15 25 26 3 11 9 18 14 16 13 -9 37 36 45 84 6 38 32 81 50 81 3 0 3 -12 0
-27z m144 -13 c31 -8 40 -15 36 -26 -3 -9 -6 -19 -6 -24 0 -4 -9 -10 -21 -13
-11 -3 -23 -15 -26 -27 -8 -31 -37 -21 -38 14 -1 15 -7 31 -13 35 -15 9 -3 63
14 57 7 -3 31 -10 54 -16z m-783 -22 c-3 -13 -11 -52 -17 -88 -15 -91 -14 -89
-52 -81 -35 8 -35 9 -24 77 8 47 17 64 32 64 8 0 19 11 24 25 12 32 44 35 37
3z m-931 -14 c22 -3 40 -7 40 -7 3 -4 -36 -220 -40 -224 -2 -3 -16 16 -31 41
-17 30 -34 46 -47 46 -10 0 -17 3 -15 8 3 4 8 28 11 55 8 59 23 100 35 93 5
-3 26 -8 47 -12z m12034 -71 c9 -52 9 -68 -1 -74 -15 -9 -29 -2 -29 14 0 7
-11 34 -25 60 -29 54 -26 67 15 67 27 0 28 -3 40 -67z m-10716 9 c-1 -7 -2
-21 -2 -32 -2 -16 -7 -19 -34 -13 -42 8 -41 6 -33 41 5 27 9 29 38 23 18 -4
32 -12 31 -19z m571 -60 c6 -4 10 -13 9 -19 -1 -7 -2 -18 -3 -24 -1 -7 -13 -8
-33 -4 -41 9 -41 9 -33 34 6 21 39 28 60 13z m-149 -36 c9 -24 -15 -96 -33
-96 -13 0 -14 8 -8 48 4 26 9 50 12 55 7 12 23 8 29 -7z m-347 -35 c9 -6 11
-18 7 -35 -4 -15 -11 -24 -17 -20 -5 3 -15 -8 -22 -25 -13 -35 -43 -39 -41 -6
2 17 11 84 13 93 2 6 47 1 60 -7z m501 -75 c-12 -17 -24 -39 -27 -48 -6 -19
-43 -20 -43 -2 0 24 12 44 26 44 8 0 19 11 25 24 7 15 17 22 25 19 12 -4 10
-11 -6 -37z m-320 -24 c-1 -36 -13 -48 -46 -44 -37 4 -42 13 -21 34 15 14 67
23 67 10z m11076 -59 c-10 -87 -16 -103 -37 -103 -11 0 -19 7 -19 18 -1 9 -3
44 -6 78 l-5 61 37 1 37 1 -7 -56z m-10932 34 c17 -13 17 -15 -3 -60 -12 -25
-21 -57 -21 -71 0 -15 -4 -26 -9 -26 -15 0 -29 24 -25 45 2 11 6 40 10 65 9
65 15 71 48 47z m-301 -13 c-1 -6 -4 -30 -7 -55 -3 -24 -10 -45 -16 -47 -6 -2
-24 -15 -41 -30 l-31 -25 8 49 c4 27 7 55 7 62 0 6 8 12 18 12 10 0 19 11 23
26 5 17 12 24 24 22 9 -2 16 -9 15 -14z m9997 1 c0 -8 1 -18 2 -22 1 -5 4 -22
8 -39 10 -44 -5 -68 -19 -31 -6 15 -13 39 -15 52 -3 14 -7 29 -10 34 -4 5 0
12 6 14 22 9 28 7 28 -8z m-11314 -27 c-3 -18 -8 -51 -11 -72 -3 -22 -7 -41
-9 -43 -2 -2 -26 -1 -54 3 -39 5 -49 10 -47 23 2 9 4 26 4 37 1 16 9 23 31 28
19 3 34 15 42 31 6 14 20 25 30 25 16 0 18 -5 14 -32z m640 10 c4 -6 8 -22 10
-35 2 -20 -2 -23 -32 -23 -34 0 -56 -22 -46 -48 3 -9 -2 -13 -13 -10 -29 5
-28 55 1 74 13 9 24 25 24 35 0 22 44 27 56 7z m11341 -30 c0 -7 3 -40 7 -73
l6 -61 -35 -2 c-31 -2 -35 0 -35 22 0 14 5 48 11 76 8 37 15 50 28 50 10 0 18
-6 18 -12z m-11784 -55 c5 -3 6 -31 3 -62 -3 -31 -5 -59 -5 -63 -1 -10 -72
-10 -88 0 -6 4 -14 19 -17 34 -3 20 1 31 20 43 14 9 24 25 24 40 0 20 4 23 27
19 15 -3 31 -8 36 -11z m1727 -2 c0 -11 7 -26 15 -35 8 -8 15 -19 15 -24 0
-18 -28 -33 -53 -27 -22 6 -23 10 -17 44 4 21 10 43 14 49 11 18 26 14 26 -7z
m-2175 -44 c24 -34 18 -47 -19 -47 -37 0 -44 9 -38 50 3 22 8 27 23 23 11 -3
26 -15 34 -26z m1673 27 c18 -5 22 -13 20 -33 -3 -23 -7 -26 -33 -22 -34 4
-45 15 -38 42 6 20 14 22 51 13z m-1523 -113 c3 -10 3 -34 0 -52 -3 -18 -7
-59 -7 -90 -1 -48 -5 -58 -21 -63 -18 -4 -19 0 -14 72 4 42 6 94 7 115 0 40
24 53 35 18z m1057 -26 c0 -8 1 -21 2 -27 1 -7 7 -17 14 -21 6 -4 12 -21 12
-38 0 -28 -2 -29 -35 -27 -39 2 -44 18 -30 93 2 11 4 23 4 28 2 14 31 7 33 -8z
m10212 -31 c8 -32 4 -37 -34 -39 -24 -1 -32 3 -36 21 -8 31 2 44 36 44 22 0
29 -6 34 -26z m-9914 -48 c25 -3 48 -5 53 -5 4 -1 5 -14 2 -30 -5 -30 -5 -30
47 -33 49 -3 53 -5 56 -30 3 -26 1 -28 -35 -28 -44 0 -70 15 -75 45 -2 11 -12
21 -23 21 -11 1 -41 3 -67 5 -44 3 -48 5 -48 29 0 32 6 39 28 34 9 -2 37 -6
62 -8z m640 -31 c0 -16 6 -25 15 -25 19 0 19 -13 1 -49 -19 -37 -39 -52 -55
-42 -10 6 -11 25 -6 75 6 55 10 66 26 66 14 0 19 -7 19 -25z m-2190 -135 c0
-73 -2 -80 -19 -80 -18 0 -20 6 -17 68 1 38 6 74 10 80 17 29 26 6 26 -68z
m2330 20 c15 -16 27 -37 25 -47 -2 -10 -4 -20 -4 -23 -1 -3 -16 -4 -33 -3 -18
1 -42 2 -54 2 -28 1 -25 36 4 57 12 8 22 22 22 30 0 20 7 18 40 -16z m-2222
-30 l37 0 -2 -42 c-1 -24 -2 -91 -2 -150 -1 -85 -4 -108 -15 -108 -15 0 -26
21 -26 50 0 10 -7 20 -16 22 -22 4 -51 101 -49 163 3 76 4 78 21 71 9 -3 32
-6 52 -6z m1012 -75 c0 -21 -5 -34 -12 -32 -6 1 -16 -13 -21 -31 -7 -22 -16
-32 -26 -30 -12 3 -15 15 -14 58 1 30 2 58 2 63 1 4 17 7 36 7 33 0 35 -2 35
-35z m106 -127 c-1 -111 -4 -158 -12 -158 -20 0 -25 30 -23 164 1 141 3 153
23 153 11 0 14 -31 12 -159z m364 111 l0 -30 -72 3 c-76 3 -77 4 -69 56 0 4
32 6 71 4 l70 -4 0 -29z m506 -41 c-2 -57 -16 -69 -55 -48 -28 14 -26 28 5 56
14 13 22 29 19 34 -3 6 3 10 13 10 18 0 20 -6 18 -52z m-1087 -197 c1 -80 -1
-100 -14 -105 -18 -7 -17 -12 -20 101 -3 78 -1 93 13 96 10 3 17 5 18 6 0 0 1
-43 3 -98z m-507 0 c2 -14 1 -47 0 -73 -4 -47 -5 -48 -38 -48 l-33 0 4 -70 c2
-40 0 -70 -6 -70 -19 0 -30 56 -35 166 -4 125 -8 118 68 120 33 1 37 -2 40
-25z m654 -66 c1 -86 0 -95 -17 -95 -14 0 -19 11 -25 48 -3 26 -11 56 -17 67
-20 36 0 75 37 75 20 0 21 -5 22 -95z m-543 -124 c15 -2 3 -55 -18 -82 -11
-15 -25 -35 -32 -45 -10 -17 -12 -14 -14 21 -1 22 -2 54 -4 70 -2 34 6 43 38
39 12 -1 26 -3 30 -3z m700 -132 c3 -23 14 -51 25 -62 27 -31 24 -80 -5 -82
-32 -2 -35 -8 -38 -67 -2 -66 -3 -68 -14 -68 -12 0 -19 31 -26 118 -5 63 -4
72 10 72 14 0 16 10 15 58 -3 72 -3 72 14 72 8 0 15 -16 19 -41z m-121 -88
c15 -30 25 -57 23 -60 -3 -2 -18 8 -33 22 -37 35 -44 34 -40 -5 4 -46 -27 -52
-36 -7 -10 51 -7 97 7 102 35 12 53 0 79 -52z m382 -49 c15 -51 17 -93 6 -107
-6 -8 -10 -35 -9 -62 3 -38 0 -48 -13 -51 -18 -4 -30 27 -32 80 -1 27 -7 32
-33 29 -8 -1 -13 11 -14 31 -1 18 -3 45 -4 60 -4 29 3 33 62 36 22 1 33 -4 37
-16z m418 -78 c3 -37 -12 -73 -33 -79 -30 -10 -34 0 -20 53 17 64 50 80 53 26z
m-1307 -60 c2 -27 8 -70 13 -96 8 -41 7 -47 -9 -51 -11 -3 -20 -1 -20 4 -1 5
-2 14 -3 20 0 5 -11 18 -22 27 -26 21 -38 71 -18 79 8 3 14 19 14 38 0 32 17
50 33 36 4 -4 9 -29 12 -57z m11160 9 c-8 -74 -19 -94 -33 -66 -6 10 -9 28 -7
39 2 10 4 27 4 36 1 16 26 48 38 48 3 0 2 -26 -2 -57z m-9651 -38 c4 -19 14
-40 24 -47 21 -16 27 -55 12 -73 -7 -8 -10 -33 -8 -55 3 -33 0 -40 -14 -40
-10 0 -18 2 -18 4 0 35 -27 119 -47 149 -25 35 -26 40 -10 48 9 6 17 18 17 28
0 44 36 33 44 -14z m-1653 -17 c5 -81 4 -100 -2 -110 -13 -20 -18 -6 -25 65
-6 58 -4 67 10 67 10 0 16 -9 17 -22z m564 -90 c4 -24 9 -54 12 -68 2 -14 8
-50 13 -79 7 -37 7 -58 0 -65 -15 -15 -27 3 -34 49 -10 63 -26 158 -31 183 -4
17 -1 22 14 22 15 0 21 -10 26 -42z m955 2 c0 -11 0 -23 0 -27 1 -7 -96 -31
-128 -32 -9 -1 -12 9 -10 27 3 25 8 28 63 38 33 7 63 12 68 13 4 1 7 -8 7 -19z
m9725 -22 c-5 -20 -10 -55 -14 -95 0 -7 -10 -13 -20 -13 -16 0 -19 5 -15 28
12 66 26 102 40 102 10 0 13 -7 9 -22z m-9448 -34 c9 -8 27 -14 41 -12 18 2
27 -3 33 -20 7 -19 4 -24 -17 -32 -45 -18 -86 -17 -89 1 -2 9 -6 31 -10 48 -5
25 -3 31 10 31 9 0 23 -7 32 -16z m9214 -46 c1 -7 0 -21 0 -31 -1 -9 4 -24 12
-32 8 -8 12 -25 10 -40 -5 -21 -9 -24 -27 -19 -20 6 -75 62 -76 75 0 4 9 18
21 33 21 27 58 35 60 14z m-10625 -43 c30 -30 24 -45 -16 -45 -23 0 -31 5 -36
24 -12 49 14 59 52 21z m1066 -106 c8 -24 -5 -78 -19 -84 -21 -7 -22 -6 -38
53 -12 46 -11 51 4 55 19 4 48 -8 53 -24z m10627 -35 c6 -5 -22 -145 -30 -150
-10 -6 -22 36 -17 62 5 33 -26 21 -36 -13 -12 -43 -47 -47 -41 -5 2 15 4 33 4
40 1 7 5 11 10 8 11 -7 41 37 41 59 0 13 6 15 33 10 17 -4 34 -9 36 -11z m111
-52 c0 -21 5 -43 10 -48 11 -11 -49 -144 -63 -141 -5 2 -17 21 -27 44 l-19 42
30 56 c16 30 29 61 29 70 0 8 9 15 20 15 16 0 20 -7 20 -38z m-895 -158 c36
-6 37 -8 32 -43 -8 -51 -15 -80 -22 -91 -9 -14 -35 -12 -36 3 -4 56 -10 68
-43 80 -5 1 -5 18 -1 36 4 21 11 31 20 27 8 -3 30 -8 50 -12z m-11065 -318 c0
-8 7 -19 16 -27 20 -16 47 -69 40 -77 -3 -3 -16 4 -29 16 -13 12 -28 22 -35
22 -14 0 -18 7 -26 45 -6 26 -4 31 14 32 11 1 20 -4 20 -11z m1507 -175 c-5
-2 -24 13 -42 34 -26 31 -36 37 -59 33 -21 -4 -29 0 -40 21 -14 25 -13 26 37
46 l52 21 30 -75 c18 -42 27 -78 22 -80z m-1852 48 c7 -19 16 -49 20 -67 6
-30 5 -32 -23 -32 -34 0 -45 11 -62 64 -12 37 -11 41 10 58 30 24 41 20 55
-23z m764 -119 c29 -82 53 -153 53 -157 -2 -18 -31 -13 -37 6 -3 12 -16 23
-29 27 -29 7 -90 168 -80 211 8 35 23 63 32 63 4 0 31 -67 61 -150z m1397 35
c9 -20 14 -39 10 -42 -11 -11 -46 29 -66 75 -24 54 -24 50 -2 54 11 2 21 -6
29 -24 6 -15 19 -44 29 -63z m-2439 7 c7 -29 7 -41 -3 -50 -9 -8 -12 -25 -8
-47 4 -26 2 -35 -9 -35 -9 0 -24 28 -39 75 l-25 74 26 10 c42 15 48 13 58 -27z
m1155 -37 c10 -28 16 -56 13 -62 -7 -21 -25 -15 -37 12 -6 14 -19 25 -29 25
-10 0 -21 12 -28 30 -9 28 -8 32 12 40 37 15 50 7 69 -45z m432 -16 c10 -30
-13 -87 -44 -107 -17 -10 -21 -8 -35 19 -23 43 -16 90 15 106 34 18 53 12 64
-18z m591 -78 c21 -43 22 -50 8 -55 -19 -8 -15 -11 -43 43 -18 35 -19 45 -8
52 7 5 14 9 15 9 2 0 14 -22 28 -49z m-361 -89 c5 -9 4 -17 -5 -23 -30 -19
-46 -9 -78 45 -19 30 -21 40 -10 46 13 9 74 -36 93 -68z m204 -86 c6 -13 8
-27 4 -31 -4 -4 -12 -23 -18 -43 l-10 -37 -27 52 -27 52 27 15 c37 20 38 20
51 -8z m-1555 -62 c26 -66 27 -84 4 -84 -15 0 -61 125 -52 140 12 20 22 9 48
-56z m9535 33 c7 -8 7 -17 -2 -30 -16 -21 -20 -21 -52 0 -25 16 -25 17 -8 30
23 16 48 17 62 0z m-7438 -142 c-5 -6 -11 -23 -14 -39 -8 -42 -11 -41 -39 6
l-25 43 26 22 27 22 17 -22 c10 -13 13 -26 8 -32z m-215 24 c5 -14 1 -25 -11
-33 -10 -8 -17 -27 -18 -46 -1 -18 -6 -35 -13 -37 -11 -4 -63 66 -63 85 0 10
70 51 87 52 6 0 15 -9 18 -21z m389 -6 c4 -13 18 -19 52 -20 49 -2 78 -25 68
-53 -7 -18 -8 -30 -3 -49 9 -30 -21 -20 -47 18 l-29 39 -31 -19 -31 -19 -28
42 -27 41 23 18 c30 23 46 24 53 2z m-1727 -86 c22 -49 24 -60 12 -67 -11 -7
-21 4 -42 46 -27 53 -30 90 -6 82 5 -2 22 -29 36 -61z m182 -128 c41 -99 21
-122 -26 -30 -22 43 -28 62 -20 70 18 18 23 13 46 -40z m761 -36 c17 -26 30
-50 30 -55 0 -4 -12 -14 -27 -22 -27 -13 -30 -12 -77 28 l-48 43 43 26 c24 14
45 26 47 27 1 0 16 -21 32 -47z m7540 -107 c10 -13 10 -19 0 -31 -16 -19 -20
-19 -48 5 -19 16 -21 23 -12 40 12 22 34 17 60 -14z m-8795 -84 c25 -52 45
-95 45 -97 0 -1 -7 -5 -15 -9 -21 -8 -122 194 -103 205 18 11 22 6 73 -99z
m1025 73 c7 -9 11 -17 9 -18 -2 -2 -16 -11 -31 -20 -27 -17 -28 -17 -43 12
-14 28 -14 30 8 34 40 8 44 7 57 -8z m1003 -64 c32 -35 34 -51 7 -51 -11 0
-20 4 -20 9 0 5 -12 11 -26 13 -34 4 -56 34 -34 48 25 16 44 11 73 -19z m-746
-1 c8 -12 9 -21 3 -25 -6 -3 -10 -19 -10 -35 0 -46 -15 -43 -47 9 -27 43 -28
49 -14 59 25 17 55 14 68 -8z m-651 -45 c25 -33 27 -65 4 -65 -8 0 -48 66 -69
113 -8 21 41 -16 65 -48z m1367 -56 c13 -42 13 -47 -4 -57 -13 -8 -20 -8 -28
2 -6 8 -24 16 -40 19 -16 3 -31 12 -34 20 -6 17 73 81 85 69 4 -4 14 -28 21
-53z m-759 -97 c17 -26 47 -70 67 -98 26 -36 36 -58 32 -73 -3 -12 0 -28 7
-36 13 -16 7 -45 -9 -45 -12 0 -117 149 -114 161 1 4 -4 29 -12 56 -28 93 -16
108 29 35z m1810 -83 c30 -36 25 -59 -7 -32 -28 23 -37 35 -37 51 0 21 17 13
44 -19z m6851 -64 c-30 -52 -41 -65 -61 -65 -24 0 -24 2 22 68 68 98 68 98 72
79 2 -9 -13 -46 -33 -82z m-8982 42 c10 -16 12 -28 6 -40 -7 -11 -6 -24 2 -38
10 -19 8 -25 -12 -40 -31 -24 -34 -24 -53 6 -12 18 -14 30 -6 50 6 15 8 31 5
36 -8 13 13 49 29 49 8 0 21 -10 29 -23z m1786 -3 c36 -30 33 -43 -10 -39 -37
3 -64 27 -56 49 9 23 31 20 66 -10z m-1481 -59 c36 -51 40 -68 15 -63 -33 6
-84 108 -55 108 5 0 23 -20 40 -45z m662 -34 c-1 -10 -51 -43 -57 -37 -10 10
-6 56 8 72 12 15 15 14 31 -6 10 -12 18 -25 18 -29z m5566 -56 c-1 -5 -12 -11
-24 -13 -16 -3 -23 3 -28 23 -9 38 15 52 38 22 10 -12 16 -26 14 -32z m-4765
19 c7 -9 15 -26 16 -37 2 -12 16 -34 30 -49 20 -21 24 -31 16 -39 -13 -13 -31
-2 -94 56 l-40 37 23 23 c28 28 32 29 49 9z m5101 -11 c29 -34 28 -41 -11 -66
-32 -21 -41 -24 -50 -13 -8 10 -7 17 4 26 9 7 13 20 10 28 -5 14 11 42 25 42
4 0 14 -8 22 -17z m-6927 -100 c34 -35 42 -63 20 -70 -5 -1 -27 22 -48 52 -45
65 -28 76 28 18z m-933 -2 c17 -23 63 -37 72 -22 21 34 94 -16 75 -51 -7 -14
-6 -27 5 -49 13 -27 13 -31 0 -36 -8 -3 -23 2 -33 11 -32 29 -32 -4 0 -61 l29
-53 -25 -6 c-35 -9 -49 6 -75 79 -13 34 -34 79 -47 101 -41 65 -42 145 -1 87z
m8058 -36 c-7 -8 -10 -21 -7 -30 4 -8 -3 -21 -16 -30 -20 -14 -23 -14 -39 7
-24 32 -22 39 20 69 30 21 39 23 45 12 5 -8 4 -20 -3 -28z m201 25 c31 -17 23
-35 -36 -80 -40 -31 -59 -40 -75 -35 -12 4 -27 2 -34 -4 -10 -8 -16 -8 -25 3
-9 11 -3 20 30 47 28 22 44 29 47 21 7 -21 19 -13 41 23 23 39 24 39 52 25z
m305 -21 c4 -7 20 -9 39 -6 26 4 38 0 56 -19 21 -22 22 -26 7 -40 -14 -14 -45
-19 -95 -15 -16 1 -63 52 -63 68 0 21 44 30 56 12z m-6320 -13 c3 -8 -4 -25
-15 -37 -12 -13 -21 -26 -21 -29 0 -4 16 -21 36 -39 33 -31 40 -51 18 -58 -5
-2 -36 24 -69 58 l-60 60 33 30 c35 31 69 38 78 15z m5001 -13 c2 -6 -14 -20
-36 -31 -35 -18 -40 -19 -45 -5 -8 19 -8 18 29 37 32 17 47 16 52 -1z m1663
-104 c0 -5 -9 -13 -21 -19 -16 -9 -25 -8 -40 6 -23 21 -24 28 -3 49 15 15 18
14 40 -6 13 -12 24 -26 24 -30z m-6347 -33 c31 -29 57 -56 57 -59 0 -3 -7 -8
-15 -11 -22 -8 -137 98 -122 113 16 16 16 15 80 -43z m-995 -25 c12 -13 22
-27 22 -32 0 -16 -22 -20 -38 -7 -9 8 -34 23 -54 33 -21 11 -38 23 -38 27 0 3
12 16 27 28 l28 22 15 -23 c8 -13 25 -34 38 -48z m1851 15 c10 -12 9 -20 -4
-40 -19 -29 -18 -28 -39 -20 -20 8 -20 18 0 49 19 29 27 31 43 11z m4488 -7
c8 -8 17 -8 31 0 16 8 21 7 26 -6 4 -9 5 -17 4 -18 -2 -1 -17 -11 -35 -23 -40
-28 -47 -28 -68 4 -16 24 -16 26 2 40 22 17 26 17 40 3z m-6924 -91 c48 -61
50 -70 18 -88 -27 -14 -71 23 -71 58 0 15 -11 47 -25 71 -14 23 -25 45 -25 48
0 16 63 -38 103 -89z m732 26 c16 -24 16 -27 -1 -45 -22 -25 -39 -24 -58 3
-15 21 -14 24 12 45 15 12 28 22 28 23 1 0 9 -12 19 -26z m6571 -21 l32 -38
-27 -37 c-26 -36 -46 -51 -87 -62 -16 -5 -27 4 -52 39 l-32 45 62 45 c34 25
64 45 68 45 3 0 19 -17 36 -37z m-4925 -40 c22 -14 38 -31 36 -37 -7 -20 -117
-15 -117 5 0 11 30 59 36 59 3 0 22 -12 45 -27z m2803 -45 c3 -17 4 -33 2 -35
-10 -11 -44 19 -48 42 -4 21 -1 25 17 25 17 0 24 -7 29 -32z m466 8 c0 -15
-18 -23 -65 -32 -32 -6 -35 23 -2 36 34 14 67 12 67 -4z m-1597 -12 c28 -4 47
-11 47 -19 0 -18 -19 -23 -57 -14 -18 4 -33 3 -33 -2 0 -11 -37 -12 -44 -1
-10 17 6 53 23 48 9 -3 37 -8 64 -12z m817 -9 c0 -14 27 -28 39 -21 4 3 8 -12
9 -33 3 -37 1 -39 -33 -43 -19 -2 -41 -1 -47 3 -10 6 -19 83 -12 99 5 12 44 8
44 -5z m-4543 -105 c18 -42 30 -59 40 -56 22 9 64 -24 62 -48 -2 -12 3 -32 10
-45 9 -17 10 -26 2 -34 -9 -9 -26 5 -69 53 -31 35 -72 80 -89 100 -18 19 -33
40 -33 46 0 9 35 41 48 43 1 1 14 -26 29 -59z m3090 -4 c35 -31 28 -39 -23
-24 -49 15 -46 12 -38 32 9 23 28 20 61 -8z m-368 -12 c17 -8 29 -19 26 -23
-2 -5 -9 -20 -15 -35 -9 -23 -12 -25 -30 -14 -11 7 -20 20 -20 30 0 21 -34 32
-59 19 -30 -17 -102 -14 -95 3 3 8 15 14 27 15 77 4 96 7 103 14 11 11 28 9
63 -9z m-2905 -56 c12 20 21 14 66 -39 l44 -52 -23 -18 c-30 -25 -46 -16 -116
67 -45 54 -54 69 -44 80 10 12 16 10 39 -17 18 -22 29 -29 34 -21z m2511 -9
c9 -14 -18 -49 -38 -49 -24 0 -77 31 -77 45 0 6 7 20 15 32 l16 22 39 -20 c22
-12 42 -25 45 -30z m-1151 -22 c39 -29 50 -57 24 -57 -18 0 -99 71 -93 81 10
15 24 10 69 -24z m6756 12 c0 -11 -81 -89 -92 -89 -4 0 -10 5 -14 12 -4 7 12
29 40 55 44 40 66 47 66 22z m295 -10 c4 -5 0 -18 -9 -28 -9 -10 -16 -27 -16
-38 0 -12 -8 -30 -17 -42 l-18 -21 -37 36 c-21 19 -38 38 -38 42 0 14 40 41
53 37 7 -3 21 1 32 9 24 18 41 20 50 5z m-7790 -69 c31 -32 36 -42 26 -54 -10
-12 -19 -7 -56 32 -32 33 -41 48 -32 54 18 12 20 11 62 -32z m3295 4 c14 -14
11 -15 -35 -8 -58 8 -59 8 -52 28 5 12 13 13 39 6 17 -6 39 -17 48 -26z m3694
-21 c4 -9 1 -20 -6 -24 -7 -4 -28 -19 -47 -33 -19 -14 -38 -23 -42 -20 -11 6
-12 34 -1 34 4 0 23 14 42 30 41 35 46 36 54 13z m-4419 -31 c-3 -7 -8 -25
-11 -38 -7 -28 -34 -46 -52 -35 -9 5 -7 20 5 58 15 48 17 51 40 40 14 -6 22
-16 18 -25z m1311 17 c19 -11 34 -25 34 -30 0 -5 0 -12 0 -16 0 -5 -6 -8 -12
-8 -15 0 -16 -87 -2 -92 28 -10 35 -23 32 -56 l-3 -36 -44 20 c-25 11 -51 28
-58 39 -8 11 -21 20 -29 20 -21 0 -17 26 8 42 17 12 22 27 26 76 2 34 7 62 10
62 2 0 20 -9 38 -21z m-1964 -9 c50 -22 73 -44 63 -59 -4 -7 -33 3 -76 24 -38
20 -67 40 -64 45 9 15 27 12 77 -10z m992 -60 c49 -33 69 -73 33 -66 -69 14
-72 16 -89 56 -14 35 -15 40 -2 40 9 0 35 -13 58 -30z m-3644 -17 c0 -5 18
-28 40 -51 22 -24 40 -48 40 -52 0 -21 -23 -20 -45 0 -13 12 -30 20 -38 17
-16 -6 -57 31 -57 51 0 20 60 54 60 35z m4318 -45 c-3 -49 -5 -53 -30 -56 -25
-3 -26 -1 -21 30 5 38 28 78 44 78 7 0 9 -20 7 -52z m-4082 -23 c-3 -12 2 -32
10 -44 13 -17 14 -25 4 -34 -9 -9 -23 0 -61 41 l-49 53 27 24 28 24 23 -22
c15 -14 21 -29 18 -42z m6905 11 c-18 -21 -78 -56 -85 -49 -12 13 -5 24 36 53
27 20 45 27 51 21 7 -7 6 -15 -2 -25z m-3892 5 c12 -8 12 -16 1 -55 -13 -47
-17 -50 -44 -40 -19 7 -19 16 -5 67 10 37 22 44 48 28z m3089 -31 c10 -29 10
-29 -41 -49 -44 -16 -53 -17 -55 -4 -4 14 61 83 78 83 4 0 13 -13 18 -30z
m905 16 c4 -10 -11 -25 -44 -45 -57 -36 -55 -35 -62 -17 -4 10 10 26 40 45 53
35 59 37 66 17z m-5766 -33 c7 -19 -84 -20 -109 -1 -18 13 -20 18 -8 22 50 17
108 7 117 -21z m3655 -11 c4 -36 -9 -49 -37 -38 -18 7 -20 63 -2 69 27 9 35 2
39 -31z m-3081 -74 c7 -12 6 -18 -2 -18 -12 0 -79 30 -79 35 0 2 3 10 6 19 5
14 9 14 36 -2 16 -9 34 -25 39 -34z m1512 -6 c-6 -14 -33 -13 -90 4 -17 5 -23
2 -23 -9 0 -27 -36 -44 -77 -38 -35 6 -38 9 -35 36 5 43 13 47 65 31 43 -13
48 -13 57 3 8 17 13 17 59 3 35 -11 47 -20 44 -30z m897 38 c0 -5 0 -13 -1
-17 -1 -11 91 -54 101 -48 6 3 10 -4 10 -17 0 -23 -2 -24 -75 -22 -68 2 -76 4
-99 30 -29 33 -32 44 -11 44 8 0 19 9 25 20 11 20 50 28 50 10z m1980 -29 c0
-4 -11 -13 -25 -19 -15 -7 -25 -8 -25 -2 0 6 -15 10 -34 10 -40 0 -52 20 -23
36 16 9 31 8 64 -3 24 -8 43 -18 43 -22z m-3516 23 c8 -3 12 -12 10 -19 -3 -7
4 -18 15 -25 12 -6 21 -15 21 -20 0 -13 -66 -13 -90 0 -16 9 -17 15 -8 40 10
30 22 35 52 24z m2800 -16 c9 -12 16 -25 16 -29 0 -8 -91 -32 -97 -25 -3 3 4
17 16 32 11 14 18 30 15 35 -12 20 36 7 50 -13z m1836 -36 c0 -18 -42 -32 -57
-20 -18 14 -16 38 4 60 17 19 18 19 35 -4 10 -13 18 -29 18 -36z m-7237 -30
c62 -62 75 -81 65 -90 -10 -8 -26 2 -68 42 -83 79 -103 103 -95 115 3 6 9 11
13 11 4 0 42 -35 85 -78z m2001 37 c13 -6 26 -20 29 -29 3 -10 23 -30 46 -44
50 -32 47 -56 -9 -56 -54 0 -95 17 -82 33 14 17 13 28 -8 57 -9 14 -15 31 -13
38 6 15 6 15 37 1z m1604 -4 c9 -2 27 -4 40 -4 17 -1 22 -6 20 -18 -4 -20 -17
-21 -100 -9 -48 7 -58 12 -58 28 0 20 6 20 98 3z m-3687 -54 c28 -27 47 -51
42 -54 -24 -14 -120 60 -110 86 3 9 9 17 12 17 3 0 28 -22 56 -49z m8740 -1
c16 -16 29 -34 29 -40 0 -16 -69 -87 -90 -93 -28 -7 -39 18 -31 70 5 37 40 93
57 93 4 0 20 -13 35 -30z m-2496 -10 c7 -11 -94 -62 -107 -54 -20 13 -5 34 35
47 52 19 64 20 72 7z m-1715 -35 c20 -12 1 -21 -42 -19 -59 3 -58 2 -52 19 5
11 16 14 45 11 22 -3 44 -8 49 -11z m1171 -8 c0 -4 -8 -22 -19 -40 -17 -30
-70 -57 -110 -57 -17 0 -37 77 -24 92 11 14 151 19 153 5z m325 -42 c12 -32
14 -49 7 -56 -21 -21 -48 -4 -63 39 -13 38 -13 44 0 52 27 17 38 10 56 -35z
m2038 -22 c-27 -23 -55 -43 -61 -43 -7 0 -20 11 -29 25 -16 24 -15 26 7 44 14
11 33 18 44 15 11 -3 29 2 40 10 15 11 23 12 34 3 11 -9 4 -19 -35 -54z
m-2860 12 c4 -25 4 -49 1 -55 -8 -13 -45 -13 -45 0 0 15 0 17 -10 51 -11 39
-6 49 24 49 20 0 25 -6 30 -45z m-3526 3 c2 8 12 7 33 -3 24 -13 27 -19 20
-33 -27 -47 -26 -46 -85 -12 -45 25 -54 35 -46 45 9 11 18 11 43 3 23 -8 32
-8 35 0z m6024 -22 c23 -27 22 -29 -7 -54 l-25 -22 -30 42 c-35 48 -36 55 -12
61 26 7 54 -3 74 -27z m1147 21 c8 -11 0 -25 -39 -65 -52 -54 -64 -60 -76 -41
-5 8 90 119 102 119 1 0 7 -6 13 -13z m-8115 -71 c29 -25 46 -48 42 -55 -11
-17 -19 -14 -71 32 -29 26 -45 48 -41 55 11 18 17 15 70 -32z m1527 24 c24
-11 65 -20 90 -20 39 0 48 -4 57 -24 6 -13 28 -32 50 -41 29 -13 38 -22 35
-35 -5 -20 -5 -20 -133 36 -167 74 -199 90 -200 97 0 14 58 7 101 -13z m-1991
-111 c0 -17 -22 -20 -45 -5 -13 9 -31 13 -40 10 -13 -5 -4 -18 40 -57 38 -33
53 -53 46 -60 -13 -13 -50 11 -124 82 l-57 55 36 37 37 38 53 -47 c30 -25 54
-49 54 -53z m6209 19 c6 -17 10 -32 9 -32 -2 -1 -24 -11 -51 -24 -26 -12 -50
-22 -52 -22 -6 0 -38 61 -33 64 29 16 96 45 105 45 6 1 16 -13 22 -31z m886 5
c17 -25 17 -27 -6 -44 -13 -9 -26 -16 -30 -13 -20 12 -12 84 10 84 5 0 17 -12
26 -27z m-678 -9 c2 -5 -18 -20 -45 -34 -31 -17 -47 -31 -46 -43 1 -10 -10
-24 -27 -32 -28 -15 -29 -14 -44 16 -9 17 -15 32 -13 34 2 2 37 20 78 39 73
35 91 39 97 20z m-1737 -19 c0 -7 -10 -17 -22 -21 -13 -4 -29 -15 -36 -25 -16
-23 -51 -25 -53 -4 -1 8 -2 21 -3 28 -4 22 12 33 51 35 20 2 39 5 42 7 7 8 21
-6 21 -20z m-1367 -46 c-5 -87 -8 -90 -61 -83 -98 13 -122 21 -122 40 0 8 10
14 23 14 13 0 29 6 36 13 6 6 24 12 38 12 21 0 28 6 35 32 7 28 11 31 31 24
19 -7 22 -15 20 -52z m657 0 c16 -18 30 -35 30 -39 0 -4 -24 -6 -52 -5 -50 1
-53 3 -50 26 2 19 25 49 39 49 1 0 16 -14 33 -31z m3254 6 c3 -10 -19 -30 -71
-65 -77 -50 -97 -58 -107 -41 -5 8 150 121 165 121 4 0 9 -7 13 -15z m-4709
-42 c-10 -42 -17 -44 -74 -24 l-54 19 29 15 c16 9 46 16 68 17 37 0 38 -1 31
-27z m1707 -22 c-5 -24 -57 -61 -82 -58 -24 2 -29 18 -21 65 0 4 25 7 54 6 36
0 51 -4 49 -13z m698 9 c0 -4 -20 -17 -45 -30 -43 -22 -65 -56 -51 -78 5 -8
-44 -25 -51 -18 -2 1 -6 17 -9 34 -6 28 -3 33 20 42 14 5 26 16 26 24 0 9 16
18 43 23 52 11 67 12 67 3z m-2210 -20 c36 -11 78 -23 95 -26 35 -6 55 -21 55
-42 0 -11 8 -13 38 -8 20 3 49 6 65 6 17 0 27 5 27 15 0 16 27 20 49 6 11 -7
11 -18 2 -59 -14 -57 9 -56 -180 -8 -156 39 -241 66 -241 76 0 10 18 60 22 60
2 0 32 -9 68 -20z m-547 -25 c21 -19 42 -35 46 -35 4 0 7 -9 7 -21 -1 -16 11
-25 52 -41 32 -12 52 -25 52 -35 0 -12 -6 -14 -32 -8 -18 5 -58 9 -88 9 -61 1
-82 10 -74 31 3 8 -4 19 -18 26 -13 6 -25 13 -27 15 -5 4 31 94 38 94 3 0 23
-16 44 -35z m2355 12 c3 -16 -3 -18 -54 -15 -60 3 -87 24 -37 30 64 7 88 3 91
-15z m-690 4 c25 -5 -77 -61 -110 -61 -5 0 -8 16 -8 36 l0 35 58 -5 c31 -2 59
-5 60 -5z m-3186 -58 c67 -51 88 -71 88 -84 0 -17 -19 -9 -72 29 -95 66 -111
81 -104 97 7 19 11 17 88 -42z m6262 -7 c15 -24 -29 -59 -55 -43 -13 8 -24 8
-42 0 -21 -10 -26 -9 -31 4 -4 9 -5 17 -4 18 17 11 105 44 112 42 5 -2 14 -11
20 -21z m-3082 -23 c11 -45 -1 -54 -63 -51 -78 4 -81 26 -6 49 68 22 64 22 69
2z m472 2 c3 -8 12 -15 21 -15 9 0 29 -10 44 -21 16 -12 34 -19 39 -15 5 3 12
-3 15 -14 3 -11 0 -20 -6 -21 -7 0 -32 -3 -56 -5 -30 -3 -47 0 -55 10 -6 7
-23 16 -37 20 -21 5 -26 11 -26 39 0 29 4 33 28 35 16 1 29 -4 33 -13z m836
-4 c0 -15 -10 -20 -47 -26 -27 -5 -54 -9 -60 -11 -7 -1 -13 6 -13 16 0 14 11
21 43 28 65 15 77 14 77 -7z m1068 -20 c9 -5 42 -12 72 -15 30 -4 58 -10 63
-15 7 -7 -142 -81 -162 -81 -9 0 -46 89 -40 94 6 5 44 25 47 26 2 0 11 -4 20
-9z m1999 -40 c-14 -14 -32 -40 -40 -57 -16 -31 -80 -94 -96 -94 -18 0 -18 28
0 43 10 9 19 27 19 40 0 32 108 121 127 105 11 -9 9 -16 -10 -37z m-4082 -21
c0 -11 -12 -15 -52 -15 -53 0 -72 16 -31 26 42 10 83 5 83 -11z m-771 4 c36
-5 46 -11 46 -26 0 -16 -5 -18 -37 -13 -73 12 -83 15 -83 30 0 17 8 18 74 9z
m-2846 -55 c41 -31 51 -44 41 -50 -21 -13 -23 -12 -73 32 -79 69 -55 83 32 18z
m5902 -37 c0 -10 10 -12 39 -7 24 4 42 2 46 -4 3 -6 2 -11 -3 -11 -14 0 -53
-41 -47 -50 3 -5 -4 -12 -16 -15 -24 -8 -62 22 -85 67 -20 38 -18 45 14 56 28
9 51 -7 52 -36z m-2966 -42 c16 -16 -1 -24 -53 -21 -33 1 -52 -3 -61 -13 -7
-9 -15 -14 -19 -12 -4 3 -13 0 -21 -5 -13 -8 -12 -11 3 -20 19 -11 24 -51 5
-44 -7 2 -32 6 -56 9 -48 6 -65 13 -57 26 2 4 -9 13 -26 20 -45 19 -30 35 35
35 31 0 60 5 64 11 19 29 160 40 186 14z m316 -40 c0 -12 -7 -17 -22 -15 -13
1 -40 3 -60 4 -46 1 -49 17 -6 29 46 12 88 3 88 -18z m3852 3 c15 -27 15 -29
-7 -45 -31 -24 -40 -23 -59 7 -16 25 -16 27 6 45 31 26 41 25 60 -7z m-3238 2
c-12 -30 -116 -34 -122 -5 -2 12 11 16 62 17 55 3 64 0 60 -12z m-708 -124
c31 -1 25 -32 -8 -43 -22 -8 -31 -19 -39 -54 -10 -40 -14 -44 -40 -42 -16 1
-29 5 -29 9 0 4 -7 15 -16 23 -18 19 -163 23 -181 5 -5 -5 -22 -7 -37 -3 -23
5 -26 11 -24 41 2 34 3 35 40 29 38 -6 120 -16 148 -18 37 -3 51 4 65 33 15
29 19 30 58 25 23 -3 51 -5 63 -5z m-1533 -64 c51 -20 56 -24 45 -39 -12 -15
-18 -14 -67 10 -52 26 -78 53 -49 51 7 0 39 -10 71 -22z m1668 -29 l65 -33
-32 -30 c-39 -37 -78 -43 -97 -14 -8 11 -24 21 -36 22 l-22 1 22 17 c21 16 21
17 5 49 -9 18 -16 35 -16 36 0 5 40 -12 111 -48z m-1893 1 c23 -10 42 -23 42
-28 0 -5 -9 -31 -20 -57 -24 -54 -21 -70 15 -84 16 -6 23 -14 19 -25 -8 -19
-27 -19 -63 -1 -39 21 -54 42 -53 76 0 18 -4 30 -12 30 -7 0 -20 6 -29 13 -16
11 -16 15 -1 60 18 53 16 52 102 16z m5367 -2 c-97 -59 -113 -66 -120 -50 -7
19 1 25 70 58 34 17 53 21 60 14 7 -7 4 -14 -10 -22z m-831 -109 c-77 -33 -74
-32 -74 -13 0 8 26 28 58 44 52 27 58 28 69 13 11 -14 5 -19 -53 -44z m-830
27 c6 -17 -10 -26 -85 -45 -90 -23 -110 -32 -107 -47 2 -10 -15 -21 -50 -35
-29 -11 -50 -23 -47 -28 3 -5 12 -7 19 -4 7 3 19 -2 26 -11 12 -14 12 -18 0
-25 -16 -10 -189 -44 -194 -39 -2 2 -7 19 -11 37 -6 29 -5 32 19 32 13 0 27 4
30 9 10 15 -23 21 -77 14 -29 -4 -68 -7 -87 -8 -32 0 -35 3 -38 31 -3 27 1 33
25 38 19 5 31 3 39 -9 9 -12 22 -14 60 -9 27 3 52 8 57 11 4 2 14 -2 22 -11
16 -15 29 -15 120 5 83 18 86 19 80 38 -4 13 11 21 88 43 113 32 104 31 111
13z m-4508 -94 c38 -23 43 -30 31 -40 -12 -9 -27 -5 -76 24 -34 20 -59 41 -55
46 9 15 47 3 100 -30z m1739 27 c1 -2 0 -18 -2 -36 -4 -24 -10 -32 -20 -28 -8
3 -23 6 -34 6 -16 0 -18 5 -13 28 4 15 9 30 11 35 4 6 51 2 58 -5z m3865 -24
c0 -7 -28 -27 -62 -42 -52 -24 -64 -26 -71 -15 -11 18 -15 14 58 51 61 31 75
32 75 6z m-996 -6 c11 -42 6 -45 -89 -72 -113 -31 -105 -30 -105 -8 0 13 13
21 48 31 28 7 58 24 74 42 32 35 63 38 72 7z m756 15 c0 -5 3 -18 6 -29 5 -17
0 -24 -25 -32 -29 -10 -32 -9 -46 18 -8 16 -15 31 -15 34 0 12 80 21 80 9z
m-4042 -57 c25 -5 42 -13 42 -21 0 -29 -14 -28 -130 11 -11 4 -12 7 -2 13 14
8 27 8 90 -3z m4200 -143 c-2 -10 -28 -30 -58 -45 -66 -32 -66 -32 -74 -12 -4
11 10 23 57 44 74 34 79 35 75 13z m-1158 -14 c0 -19 -109 -64 -122 -51 -4 4
-10 19 -13 34 l-7 28 71 -3 c39 -1 71 -5 71 -8z m-779 -26 c0 -5 3 -20 5 -35
4 -25 2 -28 -23 -28 -15 0 -48 6 -73 13 -58 16 -61 40 -5 47 76 10 95 10 96 3z
m-1868 -34 c50 -13 43 -35 -9 -32 -49 3 -91 20 -98 40 -7 16 22 14 107 -8z
m-2 -109 c11 0 14 -7 11 -29 -4 -27 0 -30 52 -50 31 -12 61 -21 66 -21 6 0 10
-9 10 -20 0 -17 -5 -19 -37 -14 -21 3 -43 7 -50 9 -6 2 -19 -2 -29 -10 -18
-13 -18 -14 -1 -32 24 -27 21 -33 -10 -23 -16 5 -44 11 -64 14 -25 5 -38 13
-42 26 -3 13 -17 22 -37 26 -26 6 -31 10 -26 28 3 12 6 29 6 38 0 12 6 16 21
13 15 -3 30 5 48 25 18 20 33 28 46 25 11 -3 27 -5 36 -5z m-564 -40 c81 -28
116 -50 92 -59 -6 -1 -57 12 -114 29 -75 24 -102 37 -98 46 7 20 22 18 120
-16z m-432 -42 c28 -11 65 -25 83 -31 30 -10 40 -25 26 -40 -6 -5 -124 35
-186 64 -16 7 -28 20 -28 30 0 16 4 17 28 8 15 -7 50 -20 77 -31z m4688 -35
c10 -10 37 -23 60 -29 l42 -11 -56 -26 c-86 -39 -88 -39 -109 16 l-19 48 22 9
c32 13 38 12 60 -7z m-3108 -18 c11 -1 33 -3 48 -4 21 -1 28 -5 25 -18 -4 -20
-10 -21 -123 -8 -44 5 -83 8 -87 7 -5 -1 -8 7 -8 19 0 20 3 21 63 14 34 -4 71
-9 82 -10z m-864 -81 c15 -19 4 -18 -75 3 -51 13 -62 20 -59 34 5 16 8 16 63
-3 32 -11 64 -26 71 -34z m3280 -42 c4 -18 4 -32 0 -33 -64 -8 -81 -1 -81 37
0 17 7 24 28 27 41 6 46 3 53 -31z m-2974 -15 c15 -10 -4 -70 -21 -64 -6 3
-37 10 -69 16 -31 7 -58 15 -60 19 -2 4 0 21 4 38 l9 31 62 -16 c35 -9 68 -19
75 -24z m1813 -102 c18 -11 10 -23 -20 -30 -16 -4 -34 -13 -38 -21 -13 -23
-76 -24 -80 -1 -3 13 3 17 22 17 15 0 35 10 47 24 20 23 44 27 69 11z m-1990
-48 c0 -6 15 -26 33 -45 31 -34 31 -35 7 -29 -14 4 -49 11 -78 17 -54 12 -59
19 -46 66 5 20 9 21 45 12 21 -6 39 -15 39 -21z m2565 -58 c12 -18 14 -18
-135 -44 -106 -19 -100 -19 -100 5 0 15 7 20 25 20 14 0 28 1 33 2 23 7 130
26 149 27 12 1 25 -4 28 -10z m25 -140 c0 -25 -4 -27 -57 -35 -93 -13 -96 -12
-104 23 -7 35 -5 37 86 49 28 3 52 8 54 10 8 8 21 -21 21 -47z"/>
<path d="M4480 13930 c-8 -5 -10 -10 -5 -10 6 0 17 5 25 10 8 5 11 10 5 10 -5
0 -17 -5 -25 -10z"/>
<path d="M2599 12499 c-35 -28 -82 -65 -104 -83 -93 -74 -187 -161 -272 -250
-50 -53 -95 -96 -100 -96 -34 0 -478 -518 -460 -536 2 -3 35 28 73 68 38 40
106 109 151 153 45 44 95 96 110 116 78 99 196 217 368 369 183 161 305 281
305 301 0 14 -2 13 -71 -42z"/>
<path d="M13200 11516 c0 -2 8 -10 18 -17 15 -13 16 -12 3 4 -13 16 -21 21
-21 13z"/>
<path d="M14526 9941 c-7 -11 25 -101 36 -101 10 0 10 1 -6 46 -7 22 -11 45
-9 52 5 14 -13 17 -21 3z"/>
<path d="M14655 9567 c-9 -20 24 -147 38 -147 12 0 3 73 -16 125 -12 32 -16
36 -22 22z"/>
<path d="M14729 9285 c-3 -2 10 -64 28 -137 38 -152 32 -127 72 -323 28 -142
48 -253 57 -320 2 -16 8 -55 14 -85 5 -30 12 -80 15 -110 3 -30 8 -63 11 -72
4 -12 0 -18 -11 -18 -14 0 -16 -7 -11 -37 3 -21 8 -72 12 -113 4 -41 8 -88 9
-105 19 -199 24 -457 11 -615 -4 -52 -9 -147 -11 -210 -8 -239 -18 -425 -30
-520 -3 -19 -7 -68 -11 -109 -3 -41 -7 -83 -9 -92 -2 -10 -7 -49 -10 -86 -4
-37 -9 -71 -12 -75 -2 -5 1 -8 8 -8 6 0 9 -8 6 -20 -3 -11 -1 -20 4 -20 5 0 9
12 10 28 1 15 2 38 3 52 2 14 6 59 10 100 4 41 9 89 12 105 2 17 6 51 9 76 2
25 10 86 19 135 8 49 17 109 21 134 3 25 9 56 12 70 5 27 17 656 17 900 0 80
-4 174 -8 210 -4 36 -9 83 -12 105 -2 22 -7 63 -10 90 -6 62 -31 241 -44 315
-5 30 -12 73 -15 95 -15 102 -91 458 -126 586 -19 72 -27 87 -40 74z"/>
<path d="M13791 9198 c1 -7 5 -24 9 -38 7 -22 8 -21 9 13 1 20 -3 37 -9 37 -5
0 -10 -6 -9 -12z"/>
<path d="M212 7959 c-18 -60 -21 -83 -28 -206 -5 -85 -3 -131 5 -154 7 -19 15
-56 18 -84 7 -65 22 -93 24 -45 0 19 3 62 6 95 10 120 8 390 -4 409 -9 17 -11
16 -21 -15z"/>
<path d="M339 7426 c-9 -10 3 -466 16 -621 2 -16 3 -42 4 -57 1 -23 6 -28 26
-28 22 0 29 8 27 30 0 3 -4 64 -8 135 -6 114 -9 156 -13 188 -1 5 -5 5 -11 2
-13 -8 -12 -19 -15 175 -2 91 -4 168 -4 173 -1 8 -15 10 -22 3z"/>
<path d="M423 6543 c-15 -5 -18 -73 -4 -73 5 0 9 -29 9 -64 0 -34 3 -76 6 -92
4 -16 8 -42 10 -59 8 -57 23 -141 70 -380 86 -435 280 -1024 481 -1460 94
-203 332 -654 372 -705 2 -2 13 1 23 8 11 7 22 12 24 12 2 0 23 -32 46 -71 34
-57 39 -73 29 -80 -10 -6 -23 1 -42 24 l-29 32 23 -40 c41 -72 211 -318 298
-430 92 -119 93 -120 133 -151 15 -12 62 -64 105 -115 42 -52 79 -96 82 -99 4
-3 35 -39 71 -80 80 -92 78 -90 221 -236 207 -212 352 -344 574 -524 83 -67
159 -129 170 -139 38 -31 260 -188 380 -268 196 -130 271 -174 287 -168 9 4
83 -32 174 -83 134 -75 439 -229 564 -285 153 -68 446 -183 565 -222 282 -92
363 -115 609 -176 160 -39 210 -48 216 -39 6 10 39 7 151 -14 173 -32 158 -30
314 -52 28 -3 57 -8 65 -9 8 -2 51 -6 95 -10 44 -4 91 -9 105 -11 14 -1 63 -5
110 -9 47 -3 105 -8 130 -10 100 -9 534 -15 523 -8 -27 19 5 36 69 38 69 1
100 -8 92 -29 -4 -10 3 -13 23 -11 15 2 75 6 133 10 58 3 123 8 145 10 22 2
72 7 110 10 39 3 81 8 95 10 14 2 50 7 81 10 31 3 67 8 80 10 12 3 45 7 73 10
28 3 58 8 66 10 8 2 33 6 55 10 22 3 47 7 55 10 8 2 33 6 54 10 21 3 48 7 60
10 12 3 32 7 46 9 14 2 54 10 88 16 59 12 63 15 59 36 -2 13 0 24 6 24 6 0 8
2 5 5 -3 3 -34 -1 -69 -9 -35 -8 -80 -18 -99 -21 -19 -3 -82 -14 -140 -25
-161 -30 -388 -61 -555 -75 -38 -4 -86 -8 -105 -10 -201 -23 -788 -23 -1035 0
-143 13 -183 17 -220 21 -41 4 -102 12 -145 19 -14 2 -54 7 -90 10 -36 4 -69
9 -74 12 -5 3 -52 6 -105 7 -78 1 -104 5 -138 23 -23 12 -59 25 -80 29 -100
18 -164 32 -261 58 -73 19 -94 21 -100 11 -13 -24 -501 131 -831 265 -205 83
-514 229 -697 330 -32 18 -77 43 -99 55 -179 99 -500 305 -743 478 -51 36
-103 69 -115 73 -19 6 -106 70 -187 140 -616 525 -1075 1067 -1479 1742 -94
158 -143 248 -240 440 -35 67 -69 122 -76 122 -41 0 -321 718 -415 1065 -52
192 -111 437 -126 520 -3 17 -14 75 -24 130 -21 110 -24 124 -40 240 -18 125
-18 127 -25 181 -6 48 -13 56 -42 47z"/>
<path d="M14026 6388 c-3 -18 -8 -51 -11 -73 -44 -302 -138 -713 -229 -1005
-83 -264 -89 -280 -107 -280 -12 0 -19 -12 -24 -42 -14 -83 -53 -186 -118
-314 -36 -71 -116 -230 -176 -354 -61 -124 -126 -252 -145 -285 -19 -33 -47
-82 -62 -110 -14 -27 -40 -69 -55 -92 -16 -23 -29 -44 -29 -48 0 -3 -8 -18
-19 -33 -94 -136 -168 -261 -159 -270 6 -6 -10 -38 -48 -93 -32 -46 -60 -86
-63 -89 -4 -3 -39 -50 -80 -105 -111 -149 -324 -404 -339 -404 -8 -1 -124
-110 -259 -244 -135 -133 -250 -246 -257 -252 -6 -5 -58 -50 -116 -100 -58
-49 -107 -93 -110 -96 -13 -15 -257 -204 -355 -275 -109 -79 -327 -225 -415
-278 -69 -41 -83 -50 -110 -67 -14 -9 -47 -29 -75 -44 -27 -15 -77 -43 -110
-62 -91 -51 -390 -201 -480 -240 -44 -19 -134 -57 -200 -85 -132 -55 -215 -97
-215 -109 0 -5 -28 -17 -62 -28 -35 -11 -108 -36 -163 -54 -122 -42 -335 -105
-462 -136 -122 -31 -123 -31 -123 -55 0 -12 2 -25 5 -28 3 -3 63 11 133 29 70
19 134 36 142 38 72 15 444 137 585 192 50 19 119 46 155 60 36 14 83 33 105
43 57 26 131 59 195 87 198 88 375 185 435 238 22 19 110 77 195 128 218 131
522 336 670 454 76 60 302 251 385 325 118 105 417 405 515 517 36 41 81 93
101 115 139 158 378 478 533 715 350 535 626 1127 819 1761 103 336 201 794
213 992 6 89 1 115 -10 56z"/>
<path d="M14858 6170 c-3 -16 -1 -30 4 -30 4 0 8 14 8 30 0 17 -2 30 -4 30 -2
0 -6 -13 -8 -30z"/>
<path d="M14852 6110 c0 -14 2 -19 5 -12 2 6 2 18 0 25 -3 6 -5 1 -5 -13z"/>
<path d="M14838 6068 c-9 -7 -19 -33 -23 -58 -14 -92 -17 -108 -45 -240 -60
-280 -84 -372 -152 -600 -97 -325 -112 -380 -103 -380 12 0 92 211 121 320 24
89 106 404 109 420 2 8 19 89 38 180 35 160 76 370 72 370 0 0 -8 -6 -17 -12z"/>
</g>
</svg>
